<mxfile host="app.diagrams.net" modified="2023-01-05T20:07:11.397Z" agent="5.0 (Windows NT 10.0; Win64; x64) AppleWebKit/537.36 (KHTML, like Gecko) Chrome/108.0.0.0 Safari/537.36" etag="uu9rElvvqDeCfgETm3hP" version="20.8.1" type="github">
  <diagram id="07fea595-8f29-1299-0266-81d95cde20df" name="Page-1">
    <mxGraphModel dx="2928" dy="1164" grid="0" gridSize="10" guides="1" tooltips="1" connect="1" arrows="1" fold="1" page="1" pageScale="1" pageWidth="1169" pageHeight="827" background="#ffffff" math="0" shadow="0">
      <root>
        <mxCell id="0" />
        <mxCell id="1" parent="0" />
        <mxCell id="GTfu7ck5MZX2i5u8NP1Y-491" value="&lt;font color=&quot;#23497d&quot;&gt;Fail&lt;/font&gt;" style="swimlane;whiteSpace=wrap;fillColor=#f8cecc;swimlaneFillColor=#FFCCCC;fontFamily=Tahoma;html=1;strokeColor=#b85450;opacity=50;" vertex="1" parent="1">
          <mxGeometry x="820" y="119.25" width="140.01" height="636.75" as="geometry">
            <mxRectangle x="20" y="20" width="80" height="23" as="alternateBounds" />
          </mxGeometry>
        </mxCell>
        <mxCell id="GTfu7ck5MZX2i5u8NP1Y-492" value="&lt;span style=&quot;color: rgb(35, 73, 125);&quot;&gt;Aggregated Data Consistency&lt;/span&gt;" style="swimlane;whiteSpace=wrap;fillColor=none;swimlaneFillColor=#BAC8D3;fontColor=#2F5B7C;fontFamily=Tahoma;html=1;strokeColor=none;opacity=25;startSize=23;" vertex="1" parent="GTfu7ck5MZX2i5u8NP1Y-491">
          <mxGeometry x="-143" y="-25.75" width="283.01" height="691.5" as="geometry">
            <mxRectangle x="20" y="20" width="80" height="23" as="alternateBounds" />
          </mxGeometry>
        </mxCell>
        <mxCell id="GTfu7ck5MZX2i5u8NP1Y-525" value="Results do not duplicate" style="text;html=1;strokeColor=none;fillColor=none;align=center;verticalAlign=middle;whiteSpace=wrap;rounded=0;sketch=1;fillStyle=solid;fontColor=#080808;" vertex="1" parent="GTfu7ck5MZX2i5u8NP1Y-492">
          <mxGeometry x="192.5" y="615.5" width="60" height="30" as="geometry" />
        </mxCell>
        <mxCell id="GTfu7ck5MZX2i5u8NP1Y-493" value="&lt;font color=&quot;#23497d&quot;&gt;Pass&lt;/font&gt;" style="swimlane;whiteSpace=wrap;fillColor=#d5e8d4;swimlaneFillColor=#CCFFCC;fontFamily=Tahoma;html=1;strokeColor=#82b366;opacity=50;" vertex="1" parent="GTfu7ck5MZX2i5u8NP1Y-492">
          <mxGeometry x="5.5" y="25" width="128.25" height="628" as="geometry">
            <mxRectangle x="20" y="20" width="80" height="23" as="alternateBounds" />
          </mxGeometry>
        </mxCell>
        <mxCell id="GTfu7ck5MZX2i5u8NP1Y-396" value="" style="shape=image;verticalLabelPosition=bottom;labelBackgroundColor=default;verticalAlign=top;aspect=fixed;imageAspect=0;image=data:image/png,iVBORw0KGgoAAAANSUhEUgAAARMAAAC3CAMAAAAGjUrGAAABLFBMVEX///+Hy/Co2ff7+vrX3eHHz9Z/x/CDze99yfLu9fqNyuizwMmGzOyJzO6t1vCwwMjl8/2r2/a03vHY7/el2/XJ5PPL6vwAZb///vr7//8AZ7oAZbvS6vkAacX///cAZr+JsdwAaLsAZMP0//8AaroAYbkbd8G4wsUAXboAa8YAY8cAaMkAYq3p+PyVvNpDjsvi7O2+zs9Yl881hMUmd8cwf8u81OUshs9Vi71rquJZmM2rzuRapth+vulBmtyEzvuFuNlpuOqYyOmn0N0bdLhXjtFhs+H/+et2pc6K0eY7f7hNpeKkxOBfsulqwOGAruEPdbKJx/pjnMvT7+4Aa7BlnsOu5Phys9qawdmY2/5ooNS+5/3S8P+DveVOl8OhucuOr83i3+De5ffBv7d1pIXpAAAKhklEQVR4nO2dC1vayBqAc+kBZAk1NzPJkKQJSSQEiAcQW8FFOWml1q17rGsr4ra75///hzPBtXXlosVcWDvv89RaqOnMy/d9800SKEFgMBgMBoPBYDAYDAaDwWAwGAwGg8FgMBgMBoPBYDAYTLJsbaU9gtXj2b/THsHq8exfaY9g9cBOpsFOpsFOpsFOpsFOpsFOpknYiSwTABDah0az1d5+d1wiDmmaTnQEDyBpJ8gI6OxUJFOHhmLaLzn0CEh0CPeTdO4AmX9ZUVSr5b/yty1VtXe3UOysFok6ATIgupaqOL0Mk6/nc3s9R4FORwOrZSVBJ6AMNKKhuNbPfYYkc2uZbLbQ/xmqtWNCW6makqATrUyD/YrXPsiT5LUTErk5OHMrDW2lAiVBJyhxripqsMcUCn85yZIkU9hzdHuwUmU2SSfEfyqq00dRwtzECSJLHgQG7Grl1YmVJJ0803VnbyLimxOmkO0fBK5SOlwZJUk6qTvQPcgzub85IbMog95YalCXVyZ/knKC+tfXlvmmkJskzm0nhUIh/4slNbVkBvIAEnICZK0hwXd98is3TiZa0JJsHgN5RTrahJzIhyI0Wn1mphMSLURtw+K1Felok8qd8pnrZPLZ2XGC8mfPclursvQk4gSVz6Fae0PeCpPbThhk5e07WG2sSElJwglNaCKEfo4kZzu5DpaWqfCrISUJJ4AuH3lnGXKRk/7bjOG9/HFyB+38JKVXWOgEPfuuVj2OfzAPIJF6IlrGDrk4TsLsCarWlnyY/hY5kdx56dVyBeY+J4UDBY4Oy+n3KEk4KVaMd9k7qTPDCUP6RkVcgRY/dicykAP31xxzf+6gQutILeIHyB1a268Yv9yd/WwnZE+1jp9+nMiAt/S/NfULnDDMNmynf0NM7HECTiVrb1rJrHqSzWbfS7WT1AMlXidoUydKuk8+yMmEFjRKGp1u7xavE7T59z0rW2ByD3TC9BXzd7oc55juJ1Yn4eUcSeoV7q7DC5yQTUnvpLztidUJTZcDIyD7mRnJM9tJLp9xzBbxhHOHJhrQezOjmMx1kmHInmJ2iVS7lDid0OW1X6s7uVmZM7fGkpncdi0oA5CilHhr7NBU35P9WVOf46SQIws9T2mkemo2NicyKpTrluoX7jb1C52Eeca0jPaWnGKdjc0Jep3B0Kzlwus335M74f7Yll48yTjRykCE7u73O2EY1Li560/RiSxrvm5lyO+Pk/8y7yE8jWlYDyG+GgtE2/j57expL3SCaEJb1Oi0WvwYa+yO0s4WZi869znJBKpPaHJK63F8cdL1lHdMf3Zzcp8TsidJRS2t05DxOAEyIW+7Ti5DLueEybahT6R1GjImJzQ4NpWr+XFwX5wU9iDspnWpNB4nslYPvKPx0k76eT4wdp6UE1DWGroy4Gd3sA9wwmTrV1BK69RsLE7kw3XD2Ln8sLSTQm6ddQyjTNNptPgx1ZOhpJNcaYGS+51klGqDSOVu4nic8DWpKXDL507ohGsZSv2pOEHTGKpWnio+0knmrPolla1g9E6ArJVq1Sb72DihBN+0UrkjJXonMpBPVWXAPdoJS1pw+DTiRNY6LhwJj48TVmgqlhj18B5AHHHie2cCG4ETFCjqb0Tyd0NG70QrQvOX8FV+rBOKYnd1RQSJvzkuhhrrGI4gROKkeHGmtpI/XR29E7T5OzjnookT4SOsdhO/1hOxExqsGapPTeYTgRNK2HGdxE8ZROsEbf5eqVaGjcwJd6VU95PuUaJ1ImuiITXZqOIEVaVzXzL4KIf4ACJ0AkInr23rgorOCUUxNe+USPZsdZROaKAd27B3HpmTyXF6kt1J9n2lETqRCbDWdgOKi9QJdxF4QTnR/XGUcQLkkxrco86pqGpsiMDt2eZ+onekROcEyICveM2vMR+RE6oo+DWPR0dP7I6uCONEAy3PuZlJdE5YNu8qPgDJtSlR5k7Dkz6eRx4nLMu+MioD7Z/nBI2Yd3VfECJ3EtbZbcvYSu7KRkRO6DWtfOTVmG/ziNAJK2QUd/ef54SQ9yX7oxCLE6rIJfp+p8ichO+VFWJygtaenZqeWIsfhRNU/Oh6YFpMkYrJCcX2z9QjOaE7DSKJEwCIke0esGxsTij2AEpDIpk7RKNwQgP5UxU2qWKMTlDnJsHiP8gJIVpWWwg9xOaEKl4EllV6/GAfQAROZK3uSFafuxPsUTs534Nmq04nECoROAHlI1c5uKMkcidoTTtQzJdlLf4yG0WcDCWlJxTjdcIKQlHYVcM6G8GsF/NYJ2i3+sI2ffbuyxp5jUV/LlItKDUAIce89Xmsk/Jho6K3LqaURJ47EzEX2zXjmIj70xAfHSfHVSWgZkwgDiccO2jrejfuO3Ue62RQsRzmdk8foxNBELi8pSjdaKY+l6WdaLJMa8S+DQNyxisaT5yEhyUNXerGe119aSeo0GnlL9BzmLurcKxOuPNMuwYbcpyfm7m8E1qun6JaQnKJOhE4Nt+uVUdxRsqyTgDQSjtQ2bng7jYm8ToJQ2XgGPZOHa0+MWlZyglN0xoonsFac+7AY3QicGg/aDudSZsSR6e/lBOggfrI9tz98ZwgidcJW+S/eKo6jOuK6XK5I3ctFQbUeimNOOEuKL4+CBTP6cTTu323kzBiO77uwtHlxnppRmMSuxPUIfJ8SWzaqtkUwfVHoUfa2X6fE5oGmib60FWOijyflpMicrJRKg0CE1abvHwoh6TmBBD1bstWpbP9y9LGxmV6TkobpY3xxj5qVSp+pyxrkZ5BmOck/Ddu5IPJPQPo61rnN8t0YfDxsoSUlNKNExQpY+5VG7pVZyiuEdcrszw5OXxNGDxLqZrhRA5rRrj6ozwBaNmVy+Gx5T+Pd9sShLB1tTFGRkLSdDKhxF9eobitQWc04MP/TgC1cmX5GjR6DRDLJNW0EzAh9CJfHxEQ651Pv/+KNl/QPjulxuOSuLEiTsJYGVO7hiQpirV92uggMZpGIBkg1FJe7kTLrNwJj4YOK9dLne6n4W5gmdWqWfHcYNQd34TIijgJEccfuj0HSlBXbVvabu43usX1NTqM8+WqzLPPL25x8mJ4MhqNmn5ru+16kmSakul5JqwFR70Bh4RM6shXLet8eNV/NkXkhGTmk6lnCvOffbsmzD2yILDIySRWS+GIxpMhsVenLcdVFSiZkg0rtmI52zuvXzdHo5OT21P8cnLvB3v98aWqS5Kk6+hr+I2ko5IR/mZYNUmCihP4px8H55fj0u0A+epkfpwIyEluAZl6Lpsj5zzZf7+oj6WoMT81Fn48HovFwSv0eqLtkI1eTqiH5U83VXUyr+vpoeVbBH+Vh/lO2s43Wgjf93ev5XY7JV4U0SsRtkiz+FPkivPguE4pv4gtcsGTZKkz98gIcXo8KIdCPqAR87xYPG68eDE83W0iRYjtrzMMnDOR/ov5ubP5/IbNnxCb33j+/Kfnm5MHn4e/ppn12Lcnf5r86Dw+/+/z/Oc3Fx0ZDWVzejzXB9u8/mbz1jy+zunm7938xB/znNA/LvfWWgwGg8FgMBgMBoPBYDAYDAaDwWAwGAwGg8FgMBgMBoPBYDAYDAaDear8Hxjpis2a6XmXAAAAAElFTkSuQmCC;" vertex="1" parent="GTfu7ck5MZX2i5u8NP1Y-493">
          <mxGeometry x="11.999999999999996" y="32.75" width="88.29" height="58.75" as="geometry" />
        </mxCell>
        <mxCell id="GTfu7ck5MZX2i5u8NP1Y-494" value="Single data statistics are&lt;br&gt;consistent" style="text;html=1;strokeColor=none;fillColor=none;align=center;verticalAlign=middle;whiteSpace=wrap;rounded=0;sketch=1;fillStyle=solid;fontColor=#080808;" vertex="1" parent="GTfu7ck5MZX2i5u8NP1Y-493">
          <mxGeometry x="24" y="102.25" width="60" height="30" as="geometry" />
        </mxCell>
        <mxCell id="GTfu7ck5MZX2i5u8NP1Y-503" value="Results are duplicated" style="text;html=1;strokeColor=none;fillColor=none;align=center;verticalAlign=middle;whiteSpace=wrap;rounded=0;sketch=1;fillStyle=solid;fontColor=#080808;" vertex="1" parent="GTfu7ck5MZX2i5u8NP1Y-493">
          <mxGeometry x="8.5" y="524.25" width="60" height="30" as="geometry" />
        </mxCell>
        <mxCell id="GTfu7ck5MZX2i5u8NP1Y-510" value="Trends &lt;br&gt;are consistent" style="text;html=1;strokeColor=none;fillColor=none;align=center;verticalAlign=middle;whiteSpace=wrap;rounded=0;sketch=1;fillStyle=solid;fontColor=#080808;" vertex="1" parent="GTfu7ck5MZX2i5u8NP1Y-493">
          <mxGeometry x="19" y="292.25" width="60" height="30" as="geometry" />
        </mxCell>
        <mxCell id="GTfu7ck5MZX2i5u8NP1Y-511" value="Trends &lt;br&gt;are&lt;br&gt;inconsistent" style="text;html=1;strokeColor=none;fillColor=none;align=center;verticalAlign=middle;whiteSpace=wrap;rounded=0;sketch=1;fillStyle=solid;fontColor=#080808;" vertex="1" parent="GTfu7ck5MZX2i5u8NP1Y-493">
          <mxGeometry x="162.54000000000002" y="393" width="60" height="30" as="geometry" />
        </mxCell>
        <mxCell id="GTfu7ck5MZX2i5u8NP1Y-535" value="" style="group" vertex="1" connectable="0" parent="GTfu7ck5MZX2i5u8NP1Y-493">
          <mxGeometry x="-30.25" y="197.75" width="158.5" height="84" as="geometry" />
        </mxCell>
        <mxCell id="GTfu7ck5MZX2i5u8NP1Y-536" value="" style="shape=image;verticalLabelPosition=bottom;labelBackgroundColor=default;verticalAlign=top;aspect=fixed;imageAspect=0;image=data:image/png,iVBORw0KGgoAAAANSUhEUgAAARMAAAC3CAMAAAAGjUrGAAABLFBMVEX///+Hy/Co2ff7+vrX3eHHz9Z/x/CDze99yfLu9fqNyuizwMmGzOyJzO6t1vCwwMjl8/2r2/a03vHY7/el2/XJ5PPL6vwAZb///vr7//8AZ7oAZbvS6vkAacX///cAZr+JsdwAaLsAZMP0//8AaroAYbkbd8G4wsUAXboAa8YAY8cAaMkAYq3p+PyVvNpDjsvi7O2+zs9Yl881hMUmd8cwf8u81OUshs9Vi71rquJZmM2rzuRapth+vulBmtyEzvuFuNlpuOqYyOmn0N0bdLhXjtFhs+H/+et2pc6K0eY7f7hNpeKkxOBfsulqwOGAruEPdbKJx/pjnMvT7+4Aa7BlnsOu5Phys9qawdmY2/5ooNS+5/3S8P+DveVOl8OhucuOr83i3+De5ffBv7d1pIXpAAAKhklEQVR4nO2dC1vayBqAc+kBZAk1NzPJkKQJSSQEiAcQW8FFOWml1q17rGsr4ra75///hzPBtXXlosVcWDvv89RaqOnMy/d9800SKEFgMBgMBoPBYDAYDAaDwWAwGAwGg8FgMBgMBoPBYDAYTLJsbaU9gtXj2b/THsHq8exfaY9g9cBOpsFOpsFOpsFOpsFOpsFOpknYiSwTABDah0az1d5+d1wiDmmaTnQEDyBpJ8gI6OxUJFOHhmLaLzn0CEh0CPeTdO4AmX9ZUVSr5b/yty1VtXe3UOysFok6ATIgupaqOL0Mk6/nc3s9R4FORwOrZSVBJ6AMNKKhuNbPfYYkc2uZbLbQ/xmqtWNCW6makqATrUyD/YrXPsiT5LUTErk5OHMrDW2lAiVBJyhxripqsMcUCn85yZIkU9hzdHuwUmU2SSfEfyqq00dRwtzECSJLHgQG7Grl1YmVJJ0803VnbyLimxOmkO0fBK5SOlwZJUk6qTvQPcgzub85IbMog95YalCXVyZ/knKC+tfXlvmmkJskzm0nhUIh/4slNbVkBvIAEnICZK0hwXd98is3TiZa0JJsHgN5RTrahJzIhyI0Wn1mphMSLURtw+K1Felok8qd8pnrZPLZ2XGC8mfPclursvQk4gSVz6Fae0PeCpPbThhk5e07WG2sSElJwglNaCKEfo4kZzu5DpaWqfCrISUJJ4AuH3lnGXKRk/7bjOG9/HFyB+38JKVXWOgEPfuuVj2OfzAPIJF6IlrGDrk4TsLsCarWlnyY/hY5kdx56dVyBeY+J4UDBY4Oy+n3KEk4KVaMd9k7qTPDCUP6RkVcgRY/dicykAP31xxzf+6gQutILeIHyB1a268Yv9yd/WwnZE+1jp9+nMiAt/S/NfULnDDMNmynf0NM7HECTiVrb1rJrHqSzWbfS7WT1AMlXidoUydKuk8+yMmEFjRKGp1u7xavE7T59z0rW2ByD3TC9BXzd7oc55juJ1Yn4eUcSeoV7q7DC5yQTUnvpLztidUJTZcDIyD7mRnJM9tJLp9xzBbxhHOHJhrQezOjmMx1kmHInmJ2iVS7lDid0OW1X6s7uVmZM7fGkpncdi0oA5CilHhr7NBU35P9WVOf46SQIws9T2mkemo2NicyKpTrluoX7jb1C52Eeca0jPaWnGKdjc0Jep3B0Kzlwus335M74f7Yll48yTjRykCE7u73O2EY1Li560/RiSxrvm5lyO+Pk/8y7yE8jWlYDyG+GgtE2/j57expL3SCaEJb1Oi0WvwYa+yO0s4WZi869znJBKpPaHJK63F8cdL1lHdMf3Zzcp8TsidJRS2t05DxOAEyIW+7Ti5DLueEybahT6R1GjImJzQ4NpWr+XFwX5wU9iDspnWpNB4nslYPvKPx0k76eT4wdp6UE1DWGroy4Gd3sA9wwmTrV1BK69RsLE7kw3XD2Ln8sLSTQm6ddQyjTNNptPgx1ZOhpJNcaYGS+51klGqDSOVu4nic8DWpKXDL507ohGsZSv2pOEHTGKpWnio+0knmrPolla1g9E6ArJVq1Sb72DihBN+0UrkjJXonMpBPVWXAPdoJS1pw+DTiRNY6LhwJj48TVmgqlhj18B5AHHHie2cCG4ETFCjqb0Tyd0NG70QrQvOX8FV+rBOKYnd1RQSJvzkuhhrrGI4gROKkeHGmtpI/XR29E7T5OzjnookT4SOsdhO/1hOxExqsGapPTeYTgRNK2HGdxE8ZROsEbf5eqVaGjcwJd6VU95PuUaJ1ImuiITXZqOIEVaVzXzL4KIf4ACJ0AkInr23rgorOCUUxNe+USPZsdZROaKAd27B3HpmTyXF6kt1J9n2lETqRCbDWdgOKi9QJdxF4QTnR/XGUcQLkkxrco86pqGpsiMDt2eZ+onekROcEyICveM2vMR+RE6oo+DWPR0dP7I6uCONEAy3PuZlJdE5YNu8qPgDJtSlR5k7Dkz6eRx4nLMu+MioD7Z/nBI2Yd3VfECJ3EtbZbcvYSu7KRkRO6DWtfOTVmG/ziNAJK2QUd/ef54SQ9yX7oxCLE6rIJfp+p8ichO+VFWJygtaenZqeWIsfhRNU/Oh6YFpMkYrJCcX2z9QjOaE7DSKJEwCIke0esGxsTij2AEpDIpk7RKNwQgP5UxU2qWKMTlDnJsHiP8gJIVpWWwg9xOaEKl4EllV6/GAfQAROZK3uSFafuxPsUTs534Nmq04nECoROAHlI1c5uKMkcidoTTtQzJdlLf4yG0WcDCWlJxTjdcIKQlHYVcM6G8GsF/NYJ2i3+sI2ffbuyxp5jUV/LlItKDUAIce89Xmsk/Jho6K3LqaURJ47EzEX2zXjmIj70xAfHSfHVSWgZkwgDiccO2jrejfuO3Ue62RQsRzmdk8foxNBELi8pSjdaKY+l6WdaLJMa8S+DQNyxisaT5yEhyUNXerGe119aSeo0GnlL9BzmLurcKxOuPNMuwYbcpyfm7m8E1qun6JaQnKJOhE4Nt+uVUdxRsqyTgDQSjtQ2bng7jYm8ToJQ2XgGPZOHa0+MWlZyglN0xoonsFac+7AY3QicGg/aDudSZsSR6e/lBOggfrI9tz98ZwgidcJW+S/eKo6jOuK6XK5I3ctFQbUeimNOOEuKL4+CBTP6cTTu323kzBiO77uwtHlxnppRmMSuxPUIfJ8SWzaqtkUwfVHoUfa2X6fE5oGmib60FWOijyflpMicrJRKg0CE1abvHwoh6TmBBD1bstWpbP9y9LGxmV6TkobpY3xxj5qVSp+pyxrkZ5BmOck/Ddu5IPJPQPo61rnN8t0YfDxsoSUlNKNExQpY+5VG7pVZyiuEdcrszw5OXxNGDxLqZrhRA5rRrj6ozwBaNmVy+Gx5T+Pd9sShLB1tTFGRkLSdDKhxF9eobitQWc04MP/TgC1cmX5GjR6DRDLJNW0EzAh9CJfHxEQ651Pv/+KNl/QPjulxuOSuLEiTsJYGVO7hiQpirV92uggMZpGIBkg1FJe7kTLrNwJj4YOK9dLne6n4W5gmdWqWfHcYNQd34TIijgJEccfuj0HSlBXbVvabu43usX1NTqM8+WqzLPPL25x8mJ4MhqNmn5ru+16kmSakul5JqwFR70Bh4RM6shXLet8eNV/NkXkhGTmk6lnCvOffbsmzD2yILDIySRWS+GIxpMhsVenLcdVFSiZkg0rtmI52zuvXzdHo5OT21P8cnLvB3v98aWqS5Kk6+hr+I2ko5IR/mZYNUmCihP4px8H55fj0u0A+epkfpwIyEluAZl6Lpsj5zzZf7+oj6WoMT81Fn48HovFwSv0eqLtkI1eTqiH5U83VXUyr+vpoeVbBH+Vh/lO2s43Wgjf93ev5XY7JV4U0SsRtkiz+FPkivPguE4pv4gtcsGTZKkz98gIcXo8KIdCPqAR87xYPG68eDE83W0iRYjtrzMMnDOR/ov5ubP5/IbNnxCb33j+/Kfnm5MHn4e/ppn12Lcnf5r86Dw+/+/z/Oc3Fx0ZDWVzejzXB9u8/mbz1jy+zunm7938xB/znNA/LvfWWgwGg8FgMBgMBoPBYDAYDAaDwWAwGAwGg8FgMBgMBoPBYDAYDAaDear8Hxjpis2a6XmXAAAAAElFTkSuQmCC;" vertex="1" parent="GTfu7ck5MZX2i5u8NP1Y-535">
          <mxGeometry y="23.099999999999998" width="88.08999319843565" height="58.61885733718755" as="geometry" />
        </mxCell>
        <mxCell id="GTfu7ck5MZX2i5u8NP1Y-537" value="" style="shape=image;verticalLabelPosition=bottom;labelBackgroundColor=default;verticalAlign=top;aspect=fixed;imageAspect=0;image=data:image/png,iVBORw0KGgoAAAANSUhEUgAAARMAAAC3CAMAAAAGjUrGAAABLFBMVEX///+Hy/Co2ff7+vrX3eHHz9Z/x/CDze99yfLu9fqNyuizwMmGzOyJzO6t1vCwwMjl8/2r2/a03vHY7/el2/XJ5PPL6vwAZb///vr7//8AZ7oAZbvS6vkAacX///cAZr+JsdwAaLsAZMP0//8AaroAYbkbd8G4wsUAXboAa8YAY8cAaMkAYq3p+PyVvNpDjsvi7O2+zs9Yl881hMUmd8cwf8u81OUshs9Vi71rquJZmM2rzuRapth+vulBmtyEzvuFuNlpuOqYyOmn0N0bdLhXjtFhs+H/+et2pc6K0eY7f7hNpeKkxOBfsulqwOGAruEPdbKJx/pjnMvT7+4Aa7BlnsOu5Phys9qawdmY2/5ooNS+5/3S8P+DveVOl8OhucuOr83i3+De5ffBv7d1pIXpAAAKhklEQVR4nO2dC1vayBqAc+kBZAk1NzPJkKQJSSQEiAcQW8FFOWml1q17rGsr4ra75///hzPBtXXlosVcWDvv89RaqOnMy/d9800SKEFgMBgMBoPBYDAYDAaDwWAwGAwGg8FgMBgMBoPBYDAYTLJsbaU9gtXj2b/THsHq8exfaY9g9cBOpsFOpsFOpsFOpsFOpsFOpknYiSwTABDah0az1d5+d1wiDmmaTnQEDyBpJ8gI6OxUJFOHhmLaLzn0CEh0CPeTdO4AmX9ZUVSr5b/yty1VtXe3UOysFok6ATIgupaqOL0Mk6/nc3s9R4FORwOrZSVBJ6AMNKKhuNbPfYYkc2uZbLbQ/xmqtWNCW6makqATrUyD/YrXPsiT5LUTErk5OHMrDW2lAiVBJyhxripqsMcUCn85yZIkU9hzdHuwUmU2SSfEfyqq00dRwtzECSJLHgQG7Grl1YmVJJ0803VnbyLimxOmkO0fBK5SOlwZJUk6qTvQPcgzub85IbMog95YalCXVyZ/knKC+tfXlvmmkJskzm0nhUIh/4slNbVkBvIAEnICZK0hwXd98is3TiZa0JJsHgN5RTrahJzIhyI0Wn1mphMSLURtw+K1Felok8qd8pnrZPLZ2XGC8mfPclursvQk4gSVz6Fae0PeCpPbThhk5e07WG2sSElJwglNaCKEfo4kZzu5DpaWqfCrISUJJ4AuH3lnGXKRk/7bjOG9/HFyB+38JKVXWOgEPfuuVj2OfzAPIJF6IlrGDrk4TsLsCarWlnyY/hY5kdx56dVyBeY+J4UDBY4Oy+n3KEk4KVaMd9k7qTPDCUP6RkVcgRY/dicykAP31xxzf+6gQutILeIHyB1a268Yv9yd/WwnZE+1jp9+nMiAt/S/NfULnDDMNmynf0NM7HECTiVrb1rJrHqSzWbfS7WT1AMlXidoUydKuk8+yMmEFjRKGp1u7xavE7T59z0rW2ByD3TC9BXzd7oc55juJ1Yn4eUcSeoV7q7DC5yQTUnvpLztidUJTZcDIyD7mRnJM9tJLp9xzBbxhHOHJhrQezOjmMx1kmHInmJ2iVS7lDid0OW1X6s7uVmZM7fGkpncdi0oA5CilHhr7NBU35P9WVOf46SQIws9T2mkemo2NicyKpTrluoX7jb1C52Eeca0jPaWnGKdjc0Jep3B0Kzlwus335M74f7Yll48yTjRykCE7u73O2EY1Li560/RiSxrvm5lyO+Pk/8y7yE8jWlYDyG+GgtE2/j57expL3SCaEJb1Oi0WvwYa+yO0s4WZi869znJBKpPaHJK63F8cdL1lHdMf3Zzcp8TsidJRS2t05DxOAEyIW+7Ti5DLueEybahT6R1GjImJzQ4NpWr+XFwX5wU9iDspnWpNB4nslYPvKPx0k76eT4wdp6UE1DWGroy4Gd3sA9wwmTrV1BK69RsLE7kw3XD2Ln8sLSTQm6ddQyjTNNptPgx1ZOhpJNcaYGS+51klGqDSOVu4nic8DWpKXDL507ohGsZSv2pOEHTGKpWnio+0knmrPolla1g9E6ArJVq1Sb72DihBN+0UrkjJXonMpBPVWXAPdoJS1pw+DTiRNY6LhwJj48TVmgqlhj18B5AHHHie2cCG4ETFCjqb0Tyd0NG70QrQvOX8FV+rBOKYnd1RQSJvzkuhhrrGI4gROKkeHGmtpI/XR29E7T5OzjnookT4SOsdhO/1hOxExqsGapPTeYTgRNK2HGdxE8ZROsEbf5eqVaGjcwJd6VU95PuUaJ1ImuiITXZqOIEVaVzXzL4KIf4ACJ0AkInr23rgorOCUUxNe+USPZsdZROaKAd27B3HpmTyXF6kt1J9n2lETqRCbDWdgOKi9QJdxF4QTnR/XGUcQLkkxrco86pqGpsiMDt2eZ+onekROcEyICveM2vMR+RE6oo+DWPR0dP7I6uCONEAy3PuZlJdE5YNu8qPgDJtSlR5k7Dkz6eRx4nLMu+MioD7Z/nBI2Yd3VfECJ3EtbZbcvYSu7KRkRO6DWtfOTVmG/ziNAJK2QUd/ef54SQ9yX7oxCLE6rIJfp+p8ichO+VFWJygtaenZqeWIsfhRNU/Oh6YFpMkYrJCcX2z9QjOaE7DSKJEwCIke0esGxsTij2AEpDIpk7RKNwQgP5UxU2qWKMTlDnJsHiP8gJIVpWWwg9xOaEKl4EllV6/GAfQAROZK3uSFafuxPsUTs534Nmq04nECoROAHlI1c5uKMkcidoTTtQzJdlLf4yG0WcDCWlJxTjdcIKQlHYVcM6G8GsF/NYJ2i3+sI2ffbuyxp5jUV/LlItKDUAIce89Xmsk/Jho6K3LqaURJ47EzEX2zXjmIj70xAfHSfHVSWgZkwgDiccO2jrejfuO3Ue62RQsRzmdk8foxNBELi8pSjdaKY+l6WdaLJMa8S+DQNyxisaT5yEhyUNXerGe119aSeo0GnlL9BzmLurcKxOuPNMuwYbcpyfm7m8E1qun6JaQnKJOhE4Nt+uVUdxRsqyTgDQSjtQ2bng7jYm8ToJQ2XgGPZOHa0+MWlZyglN0xoonsFac+7AY3QicGg/aDudSZsSR6e/lBOggfrI9tz98ZwgidcJW+S/eKo6jOuK6XK5I3ctFQbUeimNOOEuKL4+CBTP6cTTu323kzBiO77uwtHlxnppRmMSuxPUIfJ8SWzaqtkUwfVHoUfa2X6fE5oGmib60FWOijyflpMicrJRKg0CE1abvHwoh6TmBBD1bstWpbP9y9LGxmV6TkobpY3xxj5qVSp+pyxrkZ5BmOck/Ddu5IPJPQPo61rnN8t0YfDxsoSUlNKNExQpY+5VG7pVZyiuEdcrszw5OXxNGDxLqZrhRA5rRrj6ozwBaNmVy+Gx5T+Pd9sShLB1tTFGRkLSdDKhxF9eobitQWc04MP/TgC1cmX5GjR6DRDLJNW0EzAh9CJfHxEQ651Pv/+KNl/QPjulxuOSuLEiTsJYGVO7hiQpirV92uggMZpGIBkg1FJe7kTLrNwJj4YOK9dLne6n4W5gmdWqWfHcYNQd34TIijgJEccfuj0HSlBXbVvabu43usX1NTqM8+WqzLPPL25x8mJ4MhqNmn5ru+16kmSakul5JqwFR70Bh4RM6shXLet8eNV/NkXkhGTmk6lnCvOffbsmzD2yILDIySRWS+GIxpMhsVenLcdVFSiZkg0rtmI52zuvXzdHo5OT21P8cnLvB3v98aWqS5Kk6+hr+I2ko5IR/mZYNUmCihP4px8H55fj0u0A+epkfpwIyEluAZl6Lpsj5zzZf7+oj6WoMT81Fn48HovFwSv0eqLtkI1eTqiH5U83VXUyr+vpoeVbBH+Vh/lO2s43Wgjf93ev5XY7JV4U0SsRtkiz+FPkivPguE4pv4gtcsGTZKkz98gIcXo8KIdCPqAR87xYPG68eDE83W0iRYjtrzMMnDOR/ov5ubP5/IbNnxCb33j+/Kfnm5MHn4e/ppn12Lcnf5r86Dw+/+/z/Oc3Fx0ZDWVzejzXB9u8/mbz1jy+zunm7938xB/znNA/LvfWWgwGg8FgMBgMBoPBYDAYDAaDwWAwGAwGg8FgMBgMBoPBYDAYDAaDear8Hxjpis2a6XmXAAAAAElFTkSuQmCC;" vertex="1" parent="GTfu7ck5MZX2i5u8NP1Y-535">
          <mxGeometry x="70.41000680156436" y="23.099999999999998" width="88.08999319843565" height="58.61885733718755" as="geometry" />
        </mxCell>
        <mxCell id="GTfu7ck5MZX2i5u8NP1Y-538" value="" style="shape=singleArrow;whiteSpace=wrap;html=1;sketch=1;fillStyle=auto;strokeColor=#2d7713;fontColor=#080808;fillColor=#86ea96;" vertex="1" parent="GTfu7ck5MZX2i5u8NP1Y-535">
          <mxGeometry x="71.24549396361164" y="43.4" width="16.84449923482401" height="20.299999999999997" as="geometry" />
        </mxCell>
        <mxCell id="GTfu7ck5MZX2i5u8NP1Y-539" value="" style="group" vertex="1" connectable="0" parent="GTfu7ck5MZX2i5u8NP1Y-535">
          <mxGeometry x="46.15392790341779" width="57.37910219350449" height="36.05" as="geometry" />
        </mxCell>
        <mxCell id="GTfu7ck5MZX2i5u8NP1Y-540" value="" style="verticalLabelPosition=bottom;html=1;verticalAlign=top;strokeWidth=1;align=center;outlineConnect=0;dashed=0;outlineConnect=0;shape=mxgraph.aws3d.file;aspect=fixed;strokeColor=#6c8ebf;sketch=1;fillStyle=solid;fillColor=#dae8fc;" vertex="1" parent="GTfu7ck5MZX2i5u8NP1Y-539">
          <mxGeometry width="14.257184152355041" height="32.678328515558576" as="geometry" />
        </mxCell>
        <mxCell id="GTfu7ck5MZX2i5u8NP1Y-541" value="" style="verticalLabelPosition=bottom;html=1;verticalAlign=top;strokeWidth=1;align=center;outlineConnect=0;dashed=0;outlineConnect=0;shape=mxgraph.aws3d.file;aspect=fixed;strokeColor=#b85450;sketch=1;fillStyle=solid;fillColor=#f8cecc;" vertex="1" parent="GTfu7ck5MZX2i5u8NP1Y-539">
          <mxGeometry x="43.12191804114946" y="2.0999999999999996" width="14.257184152355041" height="32.678328515558576" as="geometry" />
        </mxCell>
        <mxCell id="GTfu7ck5MZX2i5u8NP1Y-542" value="" style="endArrow=classic;dashed=1;html=1;dashPattern=1 3;strokeWidth=2;rounded=0;fontColor=#080808;endFill=1;" edge="1" parent="GTfu7ck5MZX2i5u8NP1Y-539">
          <mxGeometry width="50" height="50" relative="1" as="geometry">
            <mxPoint x="8.085359632715525" y="19.599999999999998" as="sourcePoint" />
            <mxPoint x="44.469477979935384" y="19.599999999999998" as="targetPoint" />
          </mxGeometry>
        </mxCell>
        <mxCell id="GTfu7ck5MZX2i5u8NP1Y-579" value="" style="shape=image;verticalLabelPosition=bottom;labelBackgroundColor=default;verticalAlign=top;imageAspect=0;image=data:image/jpeg,/9j/4AAQSkZJRgABAgAAZABkAAD/7AARRHVja3kAAQAEAAAAPAAA/+4AJkFkb2JlAGTAAAAAAQMAFQQDBgoNAAAKxQAAGMsAACSJAAAvR//bAIQABgQEBAUEBgUFBgkGBQYJCwgGBggLDAoKCwoKDBAMDAwMDAwQDA4PEA8ODBMTFBQTExwbGxscHx8fHx8fHx8fHwEHBwcNDA0YEBAYGhURFRofHx8fHx8fHx8fHx8fHx8fHx8fHx8fHx8fHx8fHx8fHx8fHx8fHx8fHx8fHx8fHx8f/8IAEQgA1QIXAwERAAIRAQMRAf/EANsAAQACAwEBAAAAAAAAAAAAAAAEBQEDBgIHAQEAAAAAAAAAAAAAAAAAAAAAEAABBAIBAwQBAwMFAAAAAAADAQIEBQARFBAwEyBAUBIVoDMGNCU1ITEyIyYRAAIBAQQEBhAEBQIGAwAAAAECAxEAIRIEMUEyE1FhIkKS0hAgMEBxgZGhwdFSYnIjQxRQsTMFssJTcySCNPDhomODdEQVZRIBAAAAAAAAAAAAAAAAAAAAoBMBAAICAQIFBQEBAQEBAQAAAREhADFBUWEQMEBxgSBQkaGx8MGg0eHx/9oADAMBAAIRAxEAAAH6oAAAAAAAAAAAAAAeCmPRghE0yYLoyAAAAAAAAAAAAAAAAAAAAAAAAAAAAVB4LoAhkwGCjJJaAAAAAAAAAAAAAAAAAAAAAAAAAAAHPlwSAAQyYACGVxegAAAAAAAAAAAAAAAAAAAAAAAAA8nPHRGQACGTAADWUR0IAAAAAAAAAAAAAAAAAAAAAAAAMHOnRgAAEMmAAA8nPnRAAAAAAAAAAAAAAAAAAAAAAAAHOHRgAAAhkwAAA8FEdAAAAAAAAAAAAAAAAAAAAAAAAc8X56AAABDJgAAANJUF6AAAAAAAAAAAAAAAAAAAAAAUZbG4AAAAhE0AAAAiEIuAAAAAAAAAAAAAAAAAAAAACoJhLAAAABCJoAAAAK88FmAAAAAAAAAAAAAAAAAAAAVpksQAAAACGTAAAAACqN5OAAAAAAAAAAAAAAAAAAAIJoLUAAAAAEMmAAAAAApieSgAAAAAAAAAAAAAAAAACIQi4AAAAAAIRNAAAAAAKMtTeAAAAAAAAAAAAAAAAARCAXQAAAAAAIZMAAAAAABQFwbwAAAAAAAAAAAAAAACGQS6AAAAAAAIZMAAAAAAAKEtiQAAAAAAAAAAAAAAAV5oLcAAAAAAAEImgAAAAAAApCeTAAAAAAACEcidEYN5HN5QHUkoAApzaWYAAAAAAABDJgAAAAAAABUnotAAUpVlsayQQi2ORO5BAOZIZ7N5cGwoTediZB4KItiUDmS8K8lnomEc1GTeQTB6LMAhkwFKSD2eDBMMA1m01Hkry1JIIRWl8ZBRkUpjWTicXJxpcHUAAjHklgFaWQKg1F4ADiinLIvSoLU5s9molHotCIWpeAhE0HLkYpDrDnC4N5ypKNxZkk5ovDqjIMFESyzAMGg3GkkArSyAAKcuAAVBpLY3gAGDBkyeD2YIZvNoAKEvwQyYDAMHowYPRggE8AFGXhkAEQrSSWgBpIhYgAAApy4KoqyKdcbQAAAAAAAAAACGTAAAAAAAAAAACOckTi1JhELEAHzgvwaSkN5MNhMOmAAAAAAAAAAABCJoAAAAAAAAAAAOUNBpIR6LY2kcpDvTmT0Dmi6JYJh0wAAAAAAAAAAAIZMAAAAAAAAAAAByhoBVkcvAazqzacuAAAei0AAAAAAAAAAABDJgAAAAAAAAAAAKkAAAHVnsAAAEMmAAAAAAAAAAAA0G8AAAAAAAAAAAEMmAAAAAAAArTcTAAAAAAAAAAADnzoAAAAAAAAAAAAVpuJgAAAAAANJRk4tAAAAAAAAAAAD5sfSQAAAAAAAAAADmz2TizAAAAAAAKo2lgAAAAAAAAAAAVZaAAAAAAAAAAAGkgG4ngAAH/9oACAEBAAEFAvevIwbfyLzZxrAmLTw3Yn8fruT+IitzwWYsSzQaoqKnzJ5//YOu+7urRE5fRURUWveBY09hX/LqY89Y8cMcXoQL0l+iVEDJYOUaKT5Rzmtbp9mqIiJ6UC5JfpIMZRteSud8kqoiNRbJ3raByS/U5rXNa51a75H/AFsn9hoFSX63sa9onvgE+PM508rWta3sNBqX2DBGYUYxI5vjZRinMEIwi7LQamdmTGFIDDkk+/xcyURHxYw4we00KJM7UyIkhkKWpk+Jmy/CkOJ4GdtoWpL7c2K8ixJbJI/h5ctkYcOK9i9xomcvuS45WkjSRSBfCypQowokYqk7rRM5ndkgLHMA4ji+DlShRhRYxiF7zRD5feOEsQoTCML4GVKFGHGilIXvoMXM75QFilBIEcXv5cxkdIsMnk9g0YuZ7A8UoSxZYpI+/OI8cKLLl/d1tDaXmgEorGMRG20Z7K2bzIbLX+0xXufF9Mmc7yRITQr7FrA8v2MmEriRZyFd6Lk5Y9XGPIbYCtYZTCngHDbZRFjHuQsiBP5YzbZ60/Se1z4P49QtZAJ95Ecp84T5AY5jHym+6VzKtq07iy2AT/bo97Bs80mdkeMGOPosyzJN5AmumTCxxyJgY0VJsTwoqORkmO9eUF4eSIYnmCNkizhR8spixYZZTmWHVrA8vpYy5AFCWQMRJG2Q5TjujWUOS8RwGwkiONVkx0KwrvII4TJzIn0hzQTACsHvr4pVNG6SoYZLUlniKioqdLwRDVXC8FrWQiCcyOUldwyurZCyJkKO9SRGVf1ppEiShPQGMEGSpCRwdZFfHO/oexY0jIDzP9AoI5NtdPaj7L/naN+1L5ofNok/t6B/8r9RPx7vHKYMUZp1gNj/AMh06oSGONdxbF5n9GtDzOl0JClsQCiBjqiiqf3T/XjRnxiXCjY7+QeNH5YI5W+PyMhOqyuoHidUsgCJVhnkDDRdp0VEVFhHirHsAlf1VNoCOGOJ7vq2OXzA6Pr47zem3/oPQWzjtfx50nAACAfp0mK1q5pOn0ZrNJkqMh4zBMYNURcVEVNJmkyJXmETo1oOX00mKiLn1bmkzSbRrUzSZpNxoaAeiImIiJiIiZpMlwDkeiaT0SIoJDPHYxcBYxSv6m/Zrf8AH9i3/oMNaV4VfbyH4EMuZKEEQme3agOX7c8cB2OSwiSWXD2YCygnU37Nb/j/AEXt7YgelsVG/lpeLY2i5YSZpAeERlYMY0yB5uZ7hqA5nuJPm5mECEqOEwSQZU9kdLGzTPy8rJNqV0eB/IbM9fNEMsVE0nS7r1khix2RwdIHm5nuG+Dl+4k+bmdLGIkqJTwuLE6EY17PEzima5wuDa5wbXODa5wbXODa5wbXODa4GPcikbt83b5u3zdvm7fN2+bt83b5u3zdvm7fN2+bt83b5u3zdvm7fN2+bt83b5u3zdvm7fN2+Is/l7t83b5u3zdvm7fN2+bt83b5u3zdvm7fN2+bt83b5u3zdvm7fN2+bt83b5u3zdvm7fN2+Oi3JD8G1zg2ucG1zg2ucG1zg2ucC0zS/XsKh+X7hBj8/uAofz+wmTUjZElDlA9uO5C83uJk5IyxJQ5UfvG8vjlzpMWJWAHHh+3jvatV7e8fJSJNsDAjVoBR4ffnfjNQuB4vbs/Gcz25vD4534vIXB8Pr//aAAgBAgABBQL9Yj//2gAIAQMAAQUC/WI//9oACAECAgY/AmI//9oACAEDAgY/AmI//9oACAEBAQY/Au/S7sFQaWNwtTJQmYf1m5EflN58Qt87NbsexAoH/U+I2+bjmPDJI59NLM+4XdFAAt9cQJqfyt8lpYfgkb8jUW+VmBOPYnWh6SU/K2HOxnKn2zyoumPTS1ReDoP40cvlV3+ZGkc1PjbV4NNhLnX+5lF6rojX4U9J7R5cXyyiqF4wTf5+zQ3i2P8Ab33Ws5dr4j4ub4rbmRTDmhphb81POH4xhyrbrKaHzQ0txRdbyWEUK4UH/FT2rzYuQyKgXjBJr5+1wyDReji5lPCp1WWDOmqtdDmtAPuv7LeY/ipZjRReSbVNU/b9S6DNxngT87AAUA0DtnmxclkVMPGCTXz9s0cihka5lOiwjmYvkjdHMdMfuufZ4D5fxMkmgGk2xuKft6mqIfrEc4+5wDX3B58XJZFTD4CTXz9uVYVU3EGwjc1yDGkch+kTzW93gOr8S/8AzkN//eI/kHn7i8+K5kVMPwkn09wKOMStcwPBZctKcWVc0y0p5p/pt/KfxBstGaZRDTMyDnH+mv8AMbBVFFFwA7i8+LaRUw+Ak18/cWilXFG4oymwyeZbFX/bTnngc1veHn/DvssscJ/+TOOYp1D3j5rLFEuGNBRR3J58W1GqYPASa+fuRik0G8EaQRoIPCLHKZr/AHKCobQJE9oekfhgyuWvzUl9dUa+23osI08LMdLMdLHjPc3mxXsipg8BJr5+5ihwTRnFDKNKt6uEWaOVd3morpo/5h7p1fhSpGu8zMt0MfpPujXYlm3k8hxTS+0fUNQ7o82LlMipg8BJr5+6LPAcObi/TbUw1o3EbYgMLqcMsZ0q3AfwipGN2OGKIaWbgFmnnOLNS7ZGhRqReId1ebFy2RVKcQJv8/dfvMqPnqKSR6pV4PCNRsJYzcdR0g6wRqI/Bt4/gVRpZjoUDhNvu81/uWFFTVEvsjj4T3Z5cXLKKpTiBN/n7sc5lVxV/wBxlxzx7S++PPZZYmxI2g/ghlkN2gAXkk6ABrJt93mx836MOkRA/wAx1nu7y4vmFFUpxAm/z93bNZZcUbX5nLjX76e9w8NllibFG16sPwLHJruRRezNqAHDYZvOfrD9GHSsQP5twnvB5MXzSiqU4gTQ+fvBszlFxI9+Yyw1++nvfnZZYmxI2g/gAFDJM90UK7TH1cJt91mjjzPNA2YxwJ6T3i8mL5pjUFPdBND5+8WzWT22/Wy+hZOPibjtjj1XOhuZTwMNR7wzEiGjpG7KeMC2RK537s5im/gonJBWpbk3ih4bYCWoH3ZkwnAH9nFotmnlmJSJwpUjZJA5K0vNa2lvMZgGKVZAUIHDfqtIUWTEibzdlGDMp0EDWLRzlChYAkEflwi2akfML90m/wAFSteSThutC7XsyKSeMjtvtsqu9zWsc1BwufRps0rtvcy/6kzfkOAcXeTuG+cUUMvugmh7y+4y7brNDnc1x7LjWLGGVdzmk24T+annDtcxNC2GRFqreO0MK5z72KRWMtyfLpoNU4dFliUnlkiNypCsV04W0GwleVpcUjRqcPKZsRGEKPBZ8ziwxxnDJUEEMNVNNbTzRo5kgHKiZSpF1RXgHHYS4SlRWjChtlZBmFObdog+zivehu8HZzCIKs0ThRxlbftUsEGCVCi5koKHCU5WKnHZ8tLDO+PMFjR8MOAtixeLgt+4iIFmTNRSYVuYhVQmnHbPbuKZWlh3aS5huU2m7CdAswOVMQEWHG9zY/ZHFx2hikjaN4VCMHFLwNVs3jyqnNNv8FUGO8thpr8FpMMhi+yy0b4KC9qGoavw9oXchUW8sbhamWrBldeZO239sH+I23cK4V0nhJ4SdZ7OZgyscOHLlRWQsCcS4tQNkjlkRZm5mK8+AabZuTkMII8aLXla9oahwWOZmOFAtf8AkLLPvkETaHLCnltUGoOg2ISVGIFSAwN3DaR4JY3KA34hhB94jRZHzEkcZYC/Fya8RNt5I6ontsaDy2h3kq/ONENR0vBZswgD0KAD4mC+m2Xy1OTMrsW+Cnr7R3DfOKKGX3amnp7OXTLqjSTyYBjqBoJ1eCzPnzFFQ3FWOGnGWpaJ4XjZXcDEWuIPs00ngtmQRTcSmMcdAD6bSpFIC0Jo148o4r7ExSLJTThIP5WpJIqHgYgabboyqJTojqMXktNjKYIyKUN4uqcfBbFFIsi8KkH8rO4mQrHtkMLvDZZoWqp1axxG2ZzWEYoDNReHdVp+VopTcZEVqeEV7IEm0t8ci3Mp4VNsGevi5ucGz/5BzTx6LVGg9nMRxKXkZeSo06bZd8tDu4njdJygoK3Fa0tlYZYZ2ky7Nidn+SumjLw1rotlnQOwhzUrOI7nw43FV8tpt1BIrmdZgkrVeTAVNTXRXDotnguWMeOPBFiudzTg/KynAyHDTC4obZSmVAzatEX5Ix3OK116LZiVZSFy80cQioMJDYK118/tX3S4d4xd+NjrsZSMVCBTwmnp7TG+K8YXAYgMBqamnsmGBTmMxrjTQvxtoWwlz7CVhekA/SXxc48Z7X9yLvImFov03ZPpjTS2fWscTLutoFpZNFCprcBxC37x/wCrH/PbMXV+QadG2SmkeP7TcOqOSMG85Nb9FaWFBSMvIYh7hc4fNaUxLy3xlyBeRvb/APptnZo545cGTZG3MeFLxVb8TXi0LyyxxRfYpgaZMan2gL1v0W/ad+9cqgk+ZKMIDMKpUGtLrrft0sS7vKDNaXuFDjvv5pOi0lNBaK8f3FtlMDyPijl/Udn9nRW0OKLBHmFLwNiqaL7QoKXHsuwPz8Chl92pp6ezkIySA0+lThOw2sWy6VxAzj52ZZpFjOE3mpHitcwYf/ZpQqMK6rwL7fuH/tN/Ctv3mFKb7eYt2Nrd4UrdpppsHyZUwjLUkMezXEMAu10rarKCVyow1/uWzGXlnSOaTNmibvFNXFVGBxC6mulv3Smz9xAZLqjDhStRwW/cpctOs0hg3fyEwoTQkUOJqmlh9soaQZYBimyF9lverbLhCCVQCQDU3Hx2z05klDBsycKyMFuLc3RaMJFjWDLRyzHFh5JHNuNTyTavD2aHRbFkCMHOyj7H+g8z8rbpgYcwNMElzeLUw4x2lLCKFcEa6BYtwCto5qU3ihqeEV7O9atSQzLiOEldBI0Xds/xJ/GO1MUVcxP/AEouV5ToXxm3+TJuIv6EJv8A9UmnyWEcKBEGodveLaOxSgpwdmSANuhIMJZQNB02SOlVQALXitQ32oRdanYh3jq0eVVkhoLzi9rxDsuwPz8Chl92pp569pQ3i2jsVpfw2uFLV12rS/htO+Iu8743J8FALuAC1AKWuFLXClqUtLunVUzEYhlxCtAK3r4mNgODtcMyYgLxwg8IOkW+U33cP9OS6QeB9B8fltu6mOf+jIML+Q6fF2j/AAm2V/tJ/D3F/iT+MdjC864/YXlN5Fqbf42WIH9SbkjoirWw5yUyZfASY0+WmKooLjU3V0mwSJAiDQqig74cg/PwLiHu1NPPXvjBNGJF4GFbSpBN8gU3UcvzBSl9+0L7f5OXZf8AuRfMXybXmtSKdS3s1o3kN9n+E2yv9pP4e13EeXbLqxp9w1D0ebYKMnJcOcyes25OT6Ug9ANrkgTwlm6tnSTNLcVrFGoHOHDiNjvJXzFLiGckeQXWpGoQe6Kdi79HdnF8WIU81e+XIPz8C4h7tTTz175mx7HJ3Xgpf5+xSRFf4hWxWOeSEkHCgkNOi1RaFI8yjfLU7t00CnukG18UL+BmX0Na/J9GRfTS0i/bSxnCaSKyXcenVadny5LRROwzS0w1VSbwfRaRHUMpF4NgODsq8Y+chp4QbJCmhdfCdZ7N36O7OL4qinmr3y9P18C4vhqaeevfM2PY5O68FL/P2Xj54vjPvCwxD5snKk9A8XZKNerXEW3eEYMFMOqlLOq0xEXV0W+h5X9VvoeV/Vb6Hlf1W+h5X9VvoeV/Vb6Hlf1W+h5X9VqgQmMoajE1K1FNVbbGX6T9W2xl+k/VtsZfpP1bbGX6T9W2xl+k/VtsZfpP1bbGX6T9W2xl+k/VtsZfpP1bbGX6T9W2xl+k/VtsZfpP1bbGX6T9W2xl+k/VtsZfpP1bbGX6T9W2xl+k/VtsZfpP1bbGX6T9W2xl+k/VtsZfpP1bbGX6T9W2xl+k/VtsZfpP1bPRMv8AcYFxcqTYqac2mmttjL9J+rbYy/Sfq22Mv0n6ttjL9J+rbYy/Sfq22Mv0n6ttjL9J+rbYy/Sfq22Mv0n6ttjL9J+rbYy/Sfq22Mv0n6ttjL9J+rbYy/Sfq22Mv0n6ttjL9J+rbYy/Sfq22Mv0n6ttjL9J+rbYy/Sfq22Mv0n6ttjL9J+rbYy/Sfq22Mv0n6tpGbc4bsHKbg1XW+h5X9VvoeV/Vb6Hlf1W+h5X9VvoeV/Vb6Hlf1W+h5X9Vqa6dxUj9Ddti+Oop5q98mSnzCoUtxCvr75nL/pErufBhv8AP3jGojeaWU0jjSlbhU6aCyzR1CtW5tIINCD3wi7txDI5iizBpgZhq011cHfMaiN5pZSQkaUrcKnTQWWeOuFtR0gi4g93bc4d7zcez46WUS7v72Y4IVU8ivDytQGmyQo+9w7bjWxvY+U98ftmXDfPTNKGTWCjkt3w4jiDR8mr4qEHGNVDZcSKmcmOCCPFUV9omguFo4Y33gXafhY3k+U94J9/uaczfYfHTFb/AAt3ua/Sphr4u+Gwbn7znUw7z198HfYd3rxaLJ9/udeDfYfHTFb/AAt3ua/Sphr4u4f/2gAIAQEDAT8h9aVJZaAd1rJvd4/GT8t74X57/wDuA+Ayz/2AAfph2wjqEJJ5Hlxhsj1L+39WN3p0fAX7PByZRee1R8cHnBSFidvvUfERsTc3HsW6ZawJBL+Qk7j9Amylq06w1YPFAAlI6caEfKL7bN6/i4xMk76fC7p8x93UCVgNuKWA/kOTjr/+mDBuQcrtG1eV+ly8iNKuiw/SFdLmegltGBCdFJboNdB9iGvuoICq0AG1cKBO+f2zoHzrZ9hQFAHAfVfUUvSrov6pgHgZQ8JigDk5Vo5XU611fcz7ClKANq4GRqEdAeh/Ya8jQQTpWvl9c0RUaRHYmMe3SOo3Xr2jx9yaeoHdte9+XbYAQUGjyPwlNslPfyIeRIUiqRMYmI3Kml/xpvf29YU1UJbbp0PbrhoCg0AGgPJ2I9k/unkwwcQCY2S/81HT/C+v25EkQfkT6eui+mFoiDweUFgewP3zypqNC0X3DJY5PgrM4IPrxxPaPtkUoLSdV/4OX5yeNtv7hPKeXbG06A75eX/tzDLutchgxIPAvS87V8b+1LMyetTb8bV/3CuglT2emjgPMtKSdAV1X5kQ02TY4O/1NmMUccf3/wAnkv7QRZyw7X/R4Lw2xjjXk6/c2+aIk6KUudVq803KuGA8+n/KaxnTUhAq2yKT7MhlbD594JMcmMBMt5eV83t5wwzrpS51WrzkEP2y+CD8K6YBAch/E4TSfZEpBQb3cyNGATEUk91cl/ArzwFnTSmSG7V56Vm8/wBZdHD+sNAXqH+5PsUtmwXIe7LAoIGB5BDyH8SvQGDOWRTcG7V6B9jOteeE6zXuwuxqP2I2I0j9gl8H9Iug5KMoW4mxdk89W32r0IQTmMUnBu1ehGk3M0eDqPXLnrkkEVEwe9wPQciQShKN9zCb4bJewmiwkiEd2MSjBljDiNFTOBaHy4+MsLOKMhYG8dAMKCSxKPJjIuxAlJu9SnGiGMQFP39EVeMD3dgq/UBiilm9xtdhb94rA8CtOno+B+30QppJUpGDdq+ij3NFZBwvgdnGRdFKZk/Oep8x9OuBiGGBpkztcvojEBdo5M36MLaFEOGP+AsgNxQ7E4rGsDmQtmxKy8z7aUpSVDCHqvQn2f1hqBkZAh6fh4vYOXagA93AYSQa1pSG04MZtlp9pJPZlcvwuEBh1ENZAJybktGwF2vOWYbGMt75O+GcfHfCF6jvhRIVsTKpNqwepDlRngljWkxyHqT4mLSVgOquL5m6kD01jsexzh8EnURtVpyvi6i7fB8JU4nI5EQnehXg1CJXeE9Yj3Xgk5KSSsTZErwYtmmhn0tE4dMKQsTqOSRASAMSh1Ji0S1oBJYh1zeyIAkS1JOmayTRt1asYhA6HCLJU47xOIoNJOSdpYIS8nBpj3+iHcKuirjuviuwmod2ZOP4wIYGDOSBU+qKUjosNuVRwlnLF8lsAFiWdU9cMCnDjXoycldsIkhQUptrAW9QS9pTkZPMZyjAafTtj0QYTo+8sm2W8nvTXzhVjyyFW4RYe2LQgCmJBL32wBpBGhKH78QoRZDt5sf7zhroxY7AP+x21gBJsEsTxhuCsphrEBgscajgTMw4t0BIggGyPRrnHajbaToZOBixiEDnKExROTD5Uk5keALEnNxgomhFmCNAwIymo9zByMva60Z8YSI+nmiBKuwllxhoila/ooOyJEtICACviEd8D5Cj3voYsQbGU0ysP/iH0xYZAYzqMnBiDryCQ8WUuZz/ADumIFZKIm8M6FJnKDgRcQREWqGIHTh2zUppCA7xbR+MQxaarSSIkNcDhQZiiDJ980257kkjCwRkJclJAlYUpShM8NZamsThsEwSsPUx1LG8EiCiVB1AyUvjtlTDRdx3XxResrx6UCYFpOKwC4agLEs51SfcmbLgLe/AH3VaCdicgMV+tdZMaQFNhknSCEwqsxTetWtkBWcAZw2SCiowiQWnTBTYHKSgImorVYFkRHYEV2EnHn2SSBZHXuwzAjqHA7RdXgm22kE0NAlphGNCT58UASqR1GIJiyhH+RXb8DIlKknyfuB+gEWmnjCOSI5dstsqq5yNND2wToT3can78Y/RFhz9yYH48sPHjuGQ/wCqDN+Y50zpR8Ce+acnHBPV6vf6gFQt24hILqzjJ5kXTWzw/h0R+PAAgIOhillpQ0AkSysOnIkowYJAB4byGB6HWKEgTplkxZpyHUpYKBMlKgrx2Iphoy47rxKRJMawCATY52G51z1wCYIm3ONcOrKkpdCMsp0TnGuPV+catVCRAIAoBg8AdCsloJWxktBK2MrYIdnvjMeyi4UQmFDhm6EHx9J4jJddEoTuONqG5g3+kI4761+NfsSPo/xOmf5fR5Yech/hfyMpeAL+KY+YyIh8CGQg+wZoSYAfB6japKzrfT1B2cqIPU6Ptikh3PVap1SN5TGc/kEQfyzvab/Bfpn+J0z/AC+j6RZLXBHcxQ+7+MdXIpl11cl+DuPD/j0+hkpBSz3Ey+7iZlcLb0WPjGdsWB/Hh/wu/t+pOCDXdf6epP8AlN/lPfhEGdj+saslJEHH6IxROAMsCLgvfP8APd9cAd690fph/MWDYSa9rwnsDCMGCLJ1e2MebCkwhNACb14zNjCNqhPhvNPDD+Qe747Pw/8Av+pBOXG3/L9SH+Jvwr578Y8Udpo/Os0MuHZ/8HiPsLujpgMfQM4ERqMs5cvtFTFx5Fttttttoc0ER+UUT2+yZMmTJkyZMmTJkyZMmTJkyZMmTJkyeCxhkyZMmTJkyZMnnZMmTJkyZMmTJkyZMhflRDABak99fIttttttd/BHbXkzuqArbX3p6kIb6IFkHSlepGzMAqoPfz36F5kRMlgqADq4fUAShkBdieoHBkKxEOqoFt6kpoiyXCsAOrkeqUhhBA6iR5/LEOa3yMYICaus5MEtYG3ZKGfqdfTjrB0Mn9yhugn1CtNNtYAue84PLv5nGltrDIlYUZml1k9B3wPGn/BjLvOz22emYj1HYi9N5mPUfYBr5kTNbjKtD+N/BMZe5WfnemdeR//aAAgBAgMBPyH/ANiP/9oACAEDAwE/If8A2I//2gAMAwEAAhEDEQAAEJJJJJJJJJJJJJJIIJIAJJJJJJJJJJJJJJJJJJJJJJJJJJJJIBJBJJJJJJJJJJJJJJJJJJJJJJJJJJJJJABJIJJIJJJJJJJJJJJJJJJJJJJJJJJJJJJBJJJJJAJJJJJJJJJJJJJJJJJJJJJJJJJBJJJIJJJIJJJJJJJJJJJJJJJJJJJJJJJJJBJJJBJJJIJJJJJJJJJJJJJJJJJJJJJJJJJJJJIJJJJJJJJJJJJJJJJJJJJJJJJJJJIBJJJJJJJJJIJJJJJJJJJJJJJJJJJJJJJIBJJJJJJJJJJJJJJJJJJJJJJJJJJJJJJJIJJJJJJBJJJJJJJJJJJJJJJJJJJJJJJJJIJJJJJJIJJJJJJJJJJJJJJJJJJJJJJJJJIBJJJJJJJJJJJJJAJJJJJJJJJJJJJJJJJJBJJJJJJIJJJJJJJJJJJJJJJJJJJJJJJJJBJJJJJJJBJJJJJJJAJJJJJJJJJJJJJJJJBJJJJJJJJJJJJJJJJAJJJJJJJIJIJAJJJJJJJJJJJJBJJJJJJJJBJJJIIAJIJJIJJAJJBIBJAIJIJIIAABIAJBJIBIBIJJBJJJJJJJAJJIJAJJJJBABJIIJJBJJBJBJJBJJIJJJIJJBIJJIJJIBAIAABJJBJJBJJJIJJBJJJJJJJJJJJBJJJJJJJJJJJABIJJIBJAJJJJJJJJJJJJJJJJJJJJJJJJJABABJIAIBJJJJJJJJJJJJBJJJJJJJJJJJIAIABIJJJJJJJJJJJJJJJJJJJJJJJJJJJJJJJJJJJJIJJJJJJJJJJJJBJJJJJJJJJJJIJJJJJJJJAJJJJJJJJJJJJJJJJJJJJJJJJAJJJJJJJJBJJJJJJJJJJIJJJJJJJJJJJJABJJJJJJJJJJJJJJJJJJJJJJJJJJJJJJJIAJJJJ//2gAIAQEDAT8Q9bEa1cXKgHvlgHUo+/xrWK/bA09y99h90ex3OpfGJ1kUMNNKkwN43TKolLlBmXgA4hriRHQoJdQb+jMFyhEQJFFI/etHuOn8U6kk4OWC7hfJ1k4F75rAAgIDXj+lqfgsFJdeJ5xRhB2I7MfTFCTWwfjPrkkNbInpL/N8FWDP3Z+YSowAbVxZtoAcYjEOKkdDpIo0TLakS1qVd/TMQkxKBLoDrX0wqzUHfsBG9MlYEF4RNBdngwAZ+6GHgAOlCgDa4MN+hDNafartpMAgUWAIAUAaPqYPzAxhoBrj6njpKbsisOx9U8lkrNXvYYEQRkbE6fcnTKfAEoUAbcHzYZQSlYCW/ECAABAUB9aEDDxmXCYoDXH1h9+APhCRE2OEQo4uIblUZPwpfcVAVYC1cSiqaElMjqC+l04NCAgKANAeQhAhoMol3Z1x5B0LqDZBSI3jGJObZ/HCbOIfcCO7LtGO4e01tgA/4A+AKACA8nsqfvbE9jXHkpMgRKP2JsSxsyCdFtEl1Os7Sz7cjFoDJJNT+6eoegNWHvaratrb5UBK1CxcJ7GuPKmRKRrQ6yIH8wJxSIjwQFA/M+2Jhbi1ENzDXb9CN4GFPPdcL8FB5Y3EPBM8EzZGuPLlPjIEJBDi2KmHGVAKqEXVkPkKj9qH5NHAaSNR/BLBjrhA6WAHGrV3JXywqaWplwnYjXHmGIxSS62kH3iuLaniKjah7yFICn7Qc2kLx2fy1SKjDn+SFSdpJt3NwB5g8JXJRjdFdK806g0Jc52pStp5FS9jcO5ByAafsyDyaCcKuoD5YBcVFKfQniUHlUUPODrL3KMforpXnBGIYpBgBgaXvLka0iO5hRaBRY0/ZE5gAWQNwQP5kK5DAKEBX+jj5w8Je5drcqWq8+JH4rPYguyfap/9oUNQ8iNJY039imfSqUUa26PlgFyF5AYNACq78Tt5/wASZbOQjZar0E/JrB0o6HT7N2ZCaUIjEMGQEjT9gmlNBpSUDW7QbXAXV3vXUK4Hs+hOwaLyCQjZ1XoXjlDUJEqmOhrxDdc1W177Bzskh9BUS4Sj8EYDZg4XBGiEOkLlMbyE7jlQCpRXAsLOQvNgia5LRtow7lQs1GmBCdYoZjYUG/YBziYHFcbQnQO8GpQo4UcSCMr3ZVlCgoAACV4+pWtCg1slHnskCgA5AAjIO2/bdnotJU9KUsIeZivRGTPmWlwXSHrrheTEEWnUFa1aCr6XmDgS0iFKeTNkhFKczx1R2ZeC6kyOE4jcMTjeGDAst5NRFyOuFYjFY1cQAlkjeTLEWltcE4YwC8OYd3xJMtl4nWzNHRNkjBjxP6SMmKdUgww5hwmoRJthzYXblrxVcB43gi4o7SGiCt9mBObSRgzELbiqgnGhazOEBKgylJiJyy2rtcCUd0KcbErpeWICkPSM1u1ujeeMYkrM5L5CEPcnxeKAYHtAA980hBO3sCXP6LA5UklujpY21fGbMQsABAUZLhjlEhkhtFY6q1hVFCQZD+DCtCjCozfDSXkTMhsPc1ZpB3hjkNiBICkcVk5REYIgQnU5Yq5RWQ3S3BOLcjJfoNvNuTD6TT3GEtxeHgKbRqECrrKHOKQIEMrsIWPnzS6wBUSTP0SFIsHRjkhpnjx11lXcwPR6cjPVDCwh2EYQOf8AGkM6YjS4p+HVbRtMorBsYJ4PCgdGIJkNtlnrEB98EHxFcjlIpdWsiuSycWSy/jFCfJUYCEhm3FyClrTOFAOAsNPbXKDweIUBRwF20zii6IhSw2V0wS8+5RgW4HxTLe0hIPeFxoErEbHSfw1Ruw954N8QWECRE2J4jNCVZcA3Rlln9XIegKE8ZHJE4u8cAILNItH1Pwh8UUrYkxkW0nGoIFwholvHZKzrnOz2yvjEqvKsrxZ5K64BL54gToCydY84cgVTCZSpFN/ScAXK706aAuAorGQEmEx7L0ZfQpEb9V38IuFNOABBQaPClJa7Gn40S+TCF8FD0h7LVYAgj6FAxM4iQ76LkvqOHYxZB4AUFxCoyNpiQ/OQQaIXZk2AZxbSGONs0mAYfRErTTQ+1iA2FkN8ZhJOkZNtLdo2zxc8CSomEJCoTIKEAYZQbo5ScV1b3wCBfqbii4CQYRWAeUyArjSU0mTKbtSWEr/aN5MVPMhxGFD2bfiFC6fqIXCTPHit/kKpJcutjgeEnbgLomZ5mVGLORSDNyLTM8+AaSANxael2CSEONgdLwgvgAsD8iwGRZJhQicalONWZEELa7yho+gHRkZaJleQ4OMrWoM58GGDsYtSawgUiQdY0H2CMCsHJbHfdkqoB2aD3MpjamBQSjAUE3mmeTdBJ4mkKjCkQiOxwX5jUG1MZ6BfyYzhEBEbYXsE6xr6J3Y2BVCQwkJ8YQk5MCZlEAqsrgPEEBUxWP1j0lECJBJuKeLepsW0bo1JwmYPL7gBQoNNvC6uQBC60l0fue6slJqjSN8icq3n6gAEKQCwQS85TnrAsri+MbwRJRRoepkERFajiMWlYMm83NIwAACA0GRLdEAu2jHDhKmtJl2UVMl4IYUEYB5TcG8b7ZEB+HOERRDTVOa+zcEqysULCSIWDuHvhDDQPqWRPTbda8RNHXoipVATPHiigTloKOpMf6YIR9xwCjW1aa92IoEqCJergTAMlAkdJ3gCGUoQXrWcEppuNxOLGgIQKdOWQRZAQA4WQyu1wiI6MH4M3qNAJXljnNqhQCV5YwAgTQhDyk746pJtIOzQCYe2TQxJtwIPpLNRcmaTD4E4t1W6FgBmgacFZF8APd7n0f6PX5ePuoEtBtxcKc7J0iyTDn/XsAREiPRkqmpQiizC5fHsyCHqAsGT8AtBGy7vUO5mkIdQSe5bBLYmAkKShJYdMjK+F/GH+s5wRdIXvH4/0ev6Mc+EP9zpsUA9Kp0weJhksYIJFi3DYFppY/MxGlern4WCxpWBLQ4aJBWdWRa8wbYxi5PEf1PBSEtjp/hpXXj1IEi5zAKQRstL9S+j/wAL43/hXh00mLHshT4w2M5BvIxAnWEdcc34RoaEs4/UG5V9g37wdiEWi9pP6y3ShJIF1hg1RL1BLIcnxTISZjMF6f7kudxlQIJW3xSGpdTojhjtJwWyPCtL7i7xEyaAmHTX8WuvHqZdJnJEM2P1L68epK7vTNI/9B8eLxEjnkWDxze+AOChFyW/w6z4yL5loLtRDDpyA3PGU01dhURm8EOEqJQ2bgwi1jdrG7WN2sbtY3axu1jb4kMVJlcTBSZuPUggQIECBAgQIECBAgQIECBAgQIECBfGJD3X4G+vHqQQIECBAgQIECBAgQIECBAgQIECBAmT4mSpxFnMZnVZ2sbtY3axu1jdrG7WN1SHObpfuLU/Hkp3ifZN9i7r9epNaTawNybIa59TJrNKoBoUmT0JWg5CsR65XBz0QpY4gXGH1BRfg30hQAECPUKBLRiPTOP/AMBrUYUGmtmwsLq/PZYSMUVxkPhGEYrhWo64N9uTLcdiqKFMSGOD04VBtMCRiR0hdeKaTr6isiR4aEjBp3qseI3hOJYZ/FxzgppC1dykFEOPQf8AOLQ6KYjD/lgzb78516j/AJVCfhNz6jvZ62/lV3jO/PhZj/ENZ/wKoPj7c+R//9oACAECAwE/EP8A2I//2gAIAQMDAT8Q/wDYj//Z;" vertex="1" parent="GTfu7ck5MZX2i5u8NP1Y-493">
          <mxGeometry x="14.64" y="431.75" width="83" height="58.42" as="geometry" />
        </mxCell>
        <mxCell id="GTfu7ck5MZX2i5u8NP1Y-430" value="" style="shape=image;verticalLabelPosition=bottom;labelBackgroundColor=default;verticalAlign=top;aspect=fixed;imageAspect=0;image=data:image/jpeg,/9j/4AAQSkZJRgABAQAAAQABAAD/2wCEAAoHCBUSFRUVEhQZFRIYGRgZGBoaGiUZFRkYGBwaGhoYGRocLi4lHh4rHxodJjgmKy8xNTU1GiU7QDszPy40NTcBDAwMEA8QHhISHzorJScxNDY3Pzo0MTY2NTQ0NDQ0NDo0MTQ0NDQ0NDQ0NDQ0NDU0NDQ0NDQ0ND00NDQ0NDQ0N//AABEIAKMBNgMBIgACEQEDEQH/xAAbAAEAAwADAQAAAAAAAAAAAAAAAgMEAQUGB//EADwQAAIBAgEICQMEAQMEAwAAAAECAAMRUQQSFCExQZGSBRNSU2FicdHwBiIyQoGxwaEjgqIzcnPhFTRD/8QAGQEBAAMBAQAAAAAAAAAAAAAAAAIDBAEF/8QAJBEBAQACAQQBBAMAAAAAAAAAAAECEQMEEiExQiJhcbEyQZH/2gAMAwEAAhEDEQA/APqXSXSgoMqlSwOZnG9s0O601Nt/3MNWAMsrdIKtVKNizPe5H4pZSwzjic02G3UTI5f0WtZlLEixW4FrMEYOqnfYMAdVtk4PQ1EulR6avWQkioyqal/utdrXsM42G7VA21a6L+TKvqQPHf6SGm0+8TmGNv5nNX8k9W/iaIGXTqXepzD1xwnOm0+8TmHp/M0xAy6bS71OYeuOAjTafeJzD0/scZqiBl06l3icw9cfA8JzptPvE5h4e44zTEDLp1LvU5h4+PgeEabS7xOYeHuOM1RAy6bS71OYePj4HhGm0u8TmHh7jjNUQMum0u8XnHj4+B4RptLvE5h4e44zVEDLptLvE5h4+x4RptLvU5h4ePiOM1RAy6bS7xOYePseEadS71OYeHj4jjNUQMum0u8TmHj7HhGnUu9TmHgcfEcZqiBl02n3icw9P6PCNOpd4nMPXHAjjNUQM2mU+8TmHp/M406l3qcw9ccJqiBm02n3icw9P5nGnUu9TmGF8cJqiBm02n3icwxt/M406l3qcwwvjhNUQM2m0+8XmGNv5nGnUu9TmGF8cJqiBm02n3icwxt/M406l3qcwwvjhNUQM2m0+8TmGNv5nGnUu9TmHrjhNUQM2m0+8TmHp/M402l3qcw9ccBNUQKqNdWvmsGttsQbcIlsQERECir+SYXPHNP/ALl8z1PzT/duvuHCaICIiAiIgIiICIiAiIgIiICIiAiIgIiICIiAiIgIiICIiAiIgIiICIiAiIgIiIGPKsvpUmRalRUZyFUMwBYsQoAB23YgepEk2WUw60y6io34qSM46idQ9AT+xwnXdMdGvWZcwgKerDkkgqqVVq3UW+4nNK2NrXvr2ST5LWerQZwgWndmKuxuxV0KhCLfqBzib7RbXA7Kp+S/7v6l8zVKd2U3I1N+2zZxlnVeZuMC2JV1XmbjHVeZuMC2JV1XmbjHVeZuMC2JV1XmbjHVeZuMC2JV1XmbjHVeZuMC2JV1XmbjHVeZuMC2JV1XmbjHVeZuMC2JV1XmbjHVeZuMC2JV1XmbjHVeZuMC2JV1XmbjHVeZuMC2JV1XmbjHVeZuMC2JV1XmbjHVeZuMC2JV1XmbjHVeZuMC2JV1XmbjHVeZuMC2JV1XmbjHVeZuMC2JV1XmbjHVeZuMC2JV1XmbjHVeZuMC2JV1XmbjHVeZuMC2JWiW3k+sQLIiIFT/AJL6N/UtlT/kvo39S2AiIgIiICIiAiIgIiICIiAiIgIiICIiAiIgIiICIiAiIgIiICIiAiIgIiICIiAied6aWp11PMDk51DNzQ2YAKymtnEah/p535btmuNJ63KqOYldAFJZmp1FR7q2ahuM1ba2Ja2vNGsm0DvX/JfRv6lszVr5y2tsbaPTxEss2K8p94FsSqzYryn3izYryn3gWxKrNivKfeLNivKfeBbEqs2K8p95wc/tLyn3gWxPK9K/Vi02NOhm16w2hdVJP/JUudflUFvADXOtH1XlVta0AcM1j/nOH8S/DpuXObkV3lxxurXvIniaH1pUX/7FABN70ialvEoc1rf9ucfCeoyLKxWQPSqI6HYQDb+dR8JDk4c+P+USxzxy9VviVWbFeU+8WbFeU+8rSWxKrNivKfeLNivKfeBbEqs2K8p94s2K8p94FsSqzYryn3izYryn3gWxKrNivKfeLNivKfeBZEqs2K8p950PSH1GEc06IGUVRbOC/bTS9/8AqVCSFOr8QGbWNVjedxxyyupHZLfEejieTXpnKzrIoL4AM9v911vwnI+oa9M/61IPT7dFWZlxzqROcR4qWPhLbwZz+ll4c5N6eridf0fl65QudRqo6+ANwcGBN1Pgdc2WbFeU+8ps14qpbEqs2K8p94s2K8p94FsSqzYryn3izYryn3gWxKrNivKfeLNivKfeBbEqs2K8p94s2K8p94FsStA28g+gt/cQLIiIFFT8k/3bvThL5S4+9fRv6l0BERARErqVAoJYgAayTqAECjLssSijVKrBUXWSdg3D1JOoDfeeC6Y6aqZZdbNSya+pb5r1AL66ltaqdubxwE/qLpPS3QLfqEJZRsz32ByMACc0HG+E6+et0nSySZ5zz+mPm5vjiiiBQAoAA2AagJKInpMjiTySrUydjUydgjk/ep/6b23Oo32/UNY8dkjJiV54zKas8J4ZWXce36C6ep5UCtildPzpttG7OU7GQ7mHobG4ncz5eosyspzXQ3Rh+SnZ+48NhntugOm1ygFGstdRdl3MO2mK4jaDt3E+P1PS3j+rH1+m/j5O737d5ERMa0iIgIiIHErrVVRSzkBQLknUABvMpy7K0ooXqsEUbSf8AAayTgNZnkspy98qIZ1NOltSmfyNtj1AN+8Lrtv17LeLiyzv2SxxuV1HOW9I1crJAz6GTbAoObWqeZyPwU7lBvbWbfiOKFJUUKihVGwAWA3/AN3/AHgSaz0ccJhNRv48McfSQk5ASc7WmM1XJiG6yk3V19zgXvbYGGxl8DxE9H0N0n1wzagC11Az1Bup8yE7VPEbDOkIkHU3VlYo661YbQcCN4O8b5Ry8Uzn3Uc3BM5ue3s4nVdE9KCsCjgLWUDOW+ojc64qf8bDO1mCyy6rzbLLquYiJxwiIgIiICIiAidF0n0nUp1VCZuYGoKwIJZhWqdXdSDqzduw3mo5a2kLSBU02ps4I1tdWUbb2tY4QNz/AJL6N/UtmWvVCstwx1NsUnDD0ktJXBuRvTCBoiZ9KXB+RvXCNJXBuRvTCBOo4UEsbKASSdQAG0mfP+memzlhsl1yYH7R3hB1O1v06rqPQnAafqbppcpBoU7mje1Q7M8jag8t/wAsbW2Xv0onqdH0vzzn4ZObm+OLmIieoxkREBJiQkxOVLFzJqSCrIxV1N1YbVNrcNWsb7yA+fOPCTHz5+0hlJZqr8Hqeg/qZapFLKLUso2Lup1fGmTvxU6x4jXPST5k9NXFmAYYEXF/edpkX1HWycBXpGvSGoMrAV1GBV7K4GOcDsFjtnlc/R2Xuw/xrxy37e5idFkn1VktSwFQq5/SyMjg4EMJrynpzJ6YvUqBRiQfDw8ZiuGUurE3ZTH0h0hTydc6q4Ubr7ScFA1k+Ann8r+rM77ckpGodf8AqVL06K+IuM5/2Fj2p1C0izdZUY1Kpv8Ae2u17XCDYi6hqGAvNHF0uWXnLxEpja15Zlb5Q2dUFkB+xNoUdprbXPAbBfaeBICTE344zGajVhjJNRMfPnzbOR8/bV/RnAklitGKQkpEScjV2JEROJM2UI4K1KJC10N0ztSMD+SPbXmkcDY7p6ro3LlroHW43Mp1Mrb1YbiOB2i4IM87IrUemeso2z9V1JsrqP0sddjg1jbxFxKObi7549svUcHd5nt7KJ1vR/S9OuucgbUc1lKNnI2q6tYEXF9xI3gka5q0pcH5G9pgssuq81piZ9JXBuRvTCNKXsvyN64QNETPpK4NyN6YRpS9l+RvaBoiVUqudfURbEFf5iBCrkiMyuyBmX8SRrHpIUsgpKVZaahlXMUgWKp2RgPCa4gVP+S+jf1LZU/5L6N/UkzgAkmwG0nUIHM8T9Q/UHXFqOTtakCy1HBsWIuGRDtAB2sNuwb5X079StXvSyU2okEPW3uDqzaPhba/C+0dIiBQFUAKBYAbABunpdJ0nzzn4jLzc2vGLlVAAAFgNgGycxE9ZiIiICIiAkxISQnKlimJIfP8yA+fPm6THz582SFX4pj589ZISIkhI1fi5amGFmAIwIuP8xTydFN1RVPgoB+apyJMSNi7FMfP4/qTEgPnz5skxI1oxSEkJFZISNXYpj5xklkRJiQq/FyslIiSkavxcxETjpERAqoO1Coa1IFiwC1Ev+YB1MpOoOBe19R2G2oj1WSZUlVA6HOU7N37EHWDiDrE8zKhVq0CXyexN7tTY2Spj936GtsbWMRhRzcPd5ntj6jp+76sfb204mTo/LUroGX0YH8lYbVYYia5gs1dV57mIiAiIgIiddW6UVaq0iGuzKudYZoZldlBN76wh2DDGBT010smShXqBjfOCqq5zMbA2G4bNpIHjPEdJdJVsrJNY5tL9NFTdQMajfrb/iMDtnqfrWoq0kzmCjPG023HGeI0qn205hPU6Li47j332yc+eUuouAnMp0qn205hGlU+2nMJ6XdGTS6JTpVPtpzCNKTtpzCO6Gl0SnSqfbTmEaVT7acwjuhpdEp0qn205hORlSdtOYR3Q0tkhKVrIdjqf3EsFRe0OMWxLGLR8+fNskPnz5ulS1V7Q4yYqr2hxHpI2rsVokhKhVXtDjJCqvaHESNq/FaPnz5skxKhUXtDiJIVV7Q4iRtX4rh8/wAyYlIqL2hxEkKq9ocZC1fiuEkJUKq9ocRORVXtDiJG1divHz583zkfP31/3KxVXtLxGMkKi9ocR8+GQq/FaJKViqvaHESDZXTBsaiA4FgDI2rsa0Xi8z6bS7xOce8abT7xOce8bju40Xi8z6bS7xOce8abS7xOce8bhuNF4vM+m0u8TnHvGm0u8TnHvG4bjipQOdn0nalVtbPXYRuDqdTr4H9iJ2WQfUZUhMsUU22LVW/UP631028G1YMZ1pyyl3ic495wcrpEWNRCP+5bSrPjwznlRy8GGfn1XtUcMAQQQdYI1giWT59TdKevJspFA9lXVqRNv1U2uLelj4ibqP1TVp2FTR6w3slTq29QjZy/8xMuXBlPXlhy6fPH7vZxOr6H6YTKgxRWUqbENmk8VLD/ADEpuNiqyx2s6vKOig9ZapZgFKsVFs1mUMqkm1xYO2oHXqnaROOM1XJEdlZlzioYC+sfda9xsOwf5nOh0+7XlE6T6hyPK6iOEdCoJZVUMjmwBVWa7Z33AnVm7sDf0K3sL7d8CnQ6fdryiNDp92vKJoid3RmbIqZFurXlEryfo6lTVUWmuaqqouoJsosLk7dQk8qWoc3qmRfuGdnqWum8LZls2BNx4TrugqRVq5zGRGdSoZSn6QCM0k79rb43R2eh0+7XlEaHT7teUTREboz6HT7teUTLV6Hyd6i1GpKWRXRftFs2oULathN0XXu14mdlPOdOUarjMZBUDOQjojA0KdhnM33HOe4+0gAa9mo3bo7Zei6A2UaYv5ROV6OoggikgI2faPSaU2D037ZKN0VaMnYXgJCpkiMCpRbEEHUL2OqaJmykVDm9UyL9wz89S10sbhc1hZr21m41HVG6FHIqaKqhFzVAAuATYC20yzR17C8BOt+n0ZVrBldf9eqVzr3Ks11ILayLTuI3RTo69heAjR17C8BLonNjG2QUy61Coz1VlGFnKk3Gwn7Rr9cZf1CdheAnnsqyeocszjTc2agabi+YtMB+sU67A3JuLa85NttXpo2KuoTsLwEdSnZXgJbEbGarkiMrKVFmBBsADYi2oymj0VRRVUU0IUAAlQT9osLneZbly3puPu1qR9t87WN2bY39DKuhy3UUc9WVhTQMGvnBgoBBvrOsbd8bNp//AB1Huk2W/EbJMZFTH/5ryiaYg2z6HT7teUShei6IdqnVrnsoU/aLWUkjV+83zpEBOWMRTZVVbF805tRmCn8tgCgWtiTBt2eh0+7XlEaHT7teUTREG2fQ6fdryiQqZDTYEGmliCNSi+vVhNcydIKDTYOCykWIClybnsjaPCDaGT9GUaaKi01zVVVF1BNlAAuTt1CXaHT7teUTH9P0nSgiuCGGcNYsSM5rHN/QCLELc5osN07SBn0On3a8ojQ6fdryiaIg2yUMhRKjVFUBnVVNtQspYjVj9x1zidM2TZUMs6z7GpmnUCm7BVGdSzVIH6tTG/r4RA9LERAREQEREBERAREQEREBERAREQEREBERAREQEREBERAREQEREBERAREQEREBERAREQP/2Q==;" vertex="1" parent="GTfu7ck5MZX2i5u8NP1Y-492">
          <mxGeometry x="158" y="134.5" width="107.77" height="56.67" as="geometry" />
        </mxCell>
        <mxCell id="GTfu7ck5MZX2i5u8NP1Y-436" value="Single data statistics are&lt;br&gt;inconsistent" style="text;html=1;strokeColor=none;fillColor=none;align=center;verticalAlign=middle;whiteSpace=wrap;rounded=0;sketch=1;fillStyle=solid;fontColor=#080808;" vertex="1" parent="GTfu7ck5MZX2i5u8NP1Y-492">
          <mxGeometry x="178.88" y="208.5" width="60" height="30" as="geometry" />
        </mxCell>
        <mxCell id="GTfu7ck5MZX2i5u8NP1Y-569" value="" style="group" vertex="1" connectable="0" parent="GTfu7ck5MZX2i5u8NP1Y-492">
          <mxGeometry x="158" y="326.5" width="129" height="79" as="geometry" />
        </mxCell>
        <mxCell id="GTfu7ck5MZX2i5u8NP1Y-570" value="" style="shape=image;verticalLabelPosition=bottom;labelBackgroundColor=default;verticalAlign=top;aspect=fixed;imageAspect=0;image=data:image/jpeg,/9j/4AAQSkZJRgABAQAAAQABAAD/2wCEAAoHCBUSFRUVEhQZFRIYGRgZGBoaGiUZFRkYGBwaGhoYGRocLi4lHh4rHxodJjgmKy8xNTU1GiU7QDszPy40NTcBDAwMEA8QHhISHzorJScxNDY3Pzo0MTY2NTQ0NDQ0NDo0MTQ0NDQ0NDQ0NDQ0NDU0NDQ0NDQ0ND00NDQ0NDQ0N//AABEIAKMBNgMBIgACEQEDEQH/xAAbAAEAAwADAQAAAAAAAAAAAAAAAgMEAQUGB//EADwQAAIBAgEICQMEAQMEAwAAAAECAAMRUQQSFCExQZGSBRNSU2FicdHwBiIyQoGxwaEjgqIzcnPhFTRD/8QAGQEBAAMBAQAAAAAAAAAAAAAAAAIDBAEF/8QAJBEBAQACAQQBBAMAAAAAAAAAAAECEQMEEiExQiJhcbEyQZH/2gAMAwEAAhEDEQA/APqXSXSgoMqlSwOZnG9s0O601Nt/3MNWAMsrdIKtVKNizPe5H4pZSwzjic02G3UTI5f0WtZlLEixW4FrMEYOqnfYMAdVtk4PQ1EulR6avWQkioyqal/utdrXsM42G7VA21a6L+TKvqQPHf6SGm0+8TmGNv5nNX8k9W/iaIGXTqXepzD1xwnOm0+8TmHp/M0xAy6bS71OYeuOAjTafeJzD0/scZqiBl06l3icw9cfA8JzptPvE5h4e44zTEDLp1LvU5h4+PgeEabS7xOYeHuOM1RAy6bS71OYePj4HhGm0u8TmHh7jjNUQMum0u8XnHj4+B4RptLvE5h4e44zVEDLptLvE5h4+x4RptLvU5h4ePiOM1RAy6bS7xOYePseEadS71OYeHj4jjNUQMum0u8TmHj7HhGnUu9TmHgcfEcZqiBl02n3icw9P6PCNOpd4nMPXHAjjNUQM2mU+8TmHp/M406l3qcw9ccJqiBm02n3icw9P5nGnUu9TmGF8cJqiBm02n3icwxt/M406l3qcwwvjhNUQM2m0+8XmGNv5nGnUu9TmGF8cJqiBm02n3icwxt/M406l3qcwwvjhNUQM2m0+8TmGNv5nGnUu9TmHrjhNUQM2m0+8TmHp/M402l3qcw9ccBNUQKqNdWvmsGttsQbcIlsQERECir+SYXPHNP/ALl8z1PzT/duvuHCaICIiAiIgIiICIiAiIgIiICIiAiIgIiICIiAiIgIiICIiAiIgIiICIiAiIgIiIGPKsvpUmRalRUZyFUMwBYsQoAB23YgepEk2WUw60y6io34qSM46idQ9AT+xwnXdMdGvWZcwgKerDkkgqqVVq3UW+4nNK2NrXvr2ST5LWerQZwgWndmKuxuxV0KhCLfqBzib7RbXA7Kp+S/7v6l8zVKd2U3I1N+2zZxlnVeZuMC2JV1XmbjHVeZuMC2JV1XmbjHVeZuMC2JV1XmbjHVeZuMC2JV1XmbjHVeZuMC2JV1XmbjHVeZuMC2JV1XmbjHVeZuMC2JV1XmbjHVeZuMC2JV1XmbjHVeZuMC2JV1XmbjHVeZuMC2JV1XmbjHVeZuMC2JV1XmbjHVeZuMC2JV1XmbjHVeZuMC2JV1XmbjHVeZuMC2JV1XmbjHVeZuMC2JV1XmbjHVeZuMC2JV1XmbjHVeZuMC2JV1XmbjHVeZuMC2JWiW3k+sQLIiIFT/AJL6N/UtlT/kvo39S2AiIgIiICIiAiIgIiICIiAiIgIiICIiAiIgIiICIiAiIgIiICIiAiIgIiICIiAied6aWp11PMDk51DNzQ2YAKymtnEah/p535btmuNJ63KqOYldAFJZmp1FR7q2ahuM1ba2Ja2vNGsm0DvX/JfRv6lszVr5y2tsbaPTxEss2K8p94FsSqzYryn3izYryn3gWxKrNivKfeLNivKfeBbEqs2K8p95wc/tLyn3gWxPK9K/Vi02NOhm16w2hdVJP/JUudflUFvADXOtH1XlVta0AcM1j/nOH8S/DpuXObkV3lxxurXvIniaH1pUX/7FABN70ialvEoc1rf9ucfCeoyLKxWQPSqI6HYQDb+dR8JDk4c+P+USxzxy9VviVWbFeU+8WbFeU+8rSWxKrNivKfeLNivKfeBbEqs2K8p94s2K8p94FsSqzYryn3izYryn3gWxKrNivKfeLNivKfeBZEqs2K8p950PSH1GEc06IGUVRbOC/bTS9/8AqVCSFOr8QGbWNVjedxxyyupHZLfEejieTXpnKzrIoL4AM9v911vwnI+oa9M/61IPT7dFWZlxzqROcR4qWPhLbwZz+ll4c5N6eridf0fl65QudRqo6+ANwcGBN1Pgdc2WbFeU+8ps14qpbEqs2K8p94s2K8p94FsSqzYryn3izYryn3gWxKrNivKfeLNivKfeBbEqs2K8p94s2K8p94FsStA28g+gt/cQLIiIFFT8k/3bvThL5S4+9fRv6l0BERARErqVAoJYgAayTqAECjLssSijVKrBUXWSdg3D1JOoDfeeC6Y6aqZZdbNSya+pb5r1AL66ltaqdubxwE/qLpPS3QLfqEJZRsz32ByMACc0HG+E6+et0nSySZ5zz+mPm5vjiiiBQAoAA2AagJKInpMjiTySrUydjUydgjk/ep/6b23Oo32/UNY8dkjJiV54zKas8J4ZWXce36C6ep5UCtildPzpttG7OU7GQ7mHobG4ncz5eosyspzXQ3Rh+SnZ+48NhntugOm1ygFGstdRdl3MO2mK4jaDt3E+P1PS3j+rH1+m/j5O737d5ERMa0iIgIiIHErrVVRSzkBQLknUABvMpy7K0ooXqsEUbSf8AAayTgNZnkspy98qIZ1NOltSmfyNtj1AN+8Lrtv17LeLiyzv2SxxuV1HOW9I1crJAz6GTbAoObWqeZyPwU7lBvbWbfiOKFJUUKihVGwAWA3/AN3/AHgSaz0ccJhNRv48McfSQk5ASc7WmM1XJiG6yk3V19zgXvbYGGxl8DxE9H0N0n1wzagC11Az1Bup8yE7VPEbDOkIkHU3VlYo661YbQcCN4O8b5Ry8Uzn3Uc3BM5ue3s4nVdE9KCsCjgLWUDOW+ojc64qf8bDO1mCyy6rzbLLquYiJxwiIgIiICIiAidF0n0nUp1VCZuYGoKwIJZhWqdXdSDqzduw3mo5a2kLSBU02ps4I1tdWUbb2tY4QNz/AJL6N/UtmWvVCstwx1NsUnDD0ktJXBuRvTCBoiZ9KXB+RvXCNJXBuRvTCBOo4UEsbKASSdQAG0mfP+memzlhsl1yYH7R3hB1O1v06rqPQnAafqbppcpBoU7mje1Q7M8jag8t/wAsbW2Xv0onqdH0vzzn4ZObm+OLmIieoxkREBJiQkxOVLFzJqSCrIxV1N1YbVNrcNWsb7yA+fOPCTHz5+0hlJZqr8Hqeg/qZapFLKLUso2Lup1fGmTvxU6x4jXPST5k9NXFmAYYEXF/edpkX1HWycBXpGvSGoMrAV1GBV7K4GOcDsFjtnlc/R2Xuw/xrxy37e5idFkn1VktSwFQq5/SyMjg4EMJrynpzJ6YvUqBRiQfDw8ZiuGUurE3ZTH0h0hTydc6q4Ubr7ScFA1k+Ann8r+rM77ckpGodf8AqVL06K+IuM5/2Fj2p1C0izdZUY1Kpv8Ae2u17XCDYi6hqGAvNHF0uWXnLxEpja15Zlb5Q2dUFkB+xNoUdprbXPAbBfaeBICTE344zGajVhjJNRMfPnzbOR8/bV/RnAklitGKQkpEScjV2JEROJM2UI4K1KJC10N0ztSMD+SPbXmkcDY7p6ro3LlroHW43Mp1Mrb1YbiOB2i4IM87IrUemeso2z9V1JsrqP0sddjg1jbxFxKObi7549svUcHd5nt7KJ1vR/S9OuucgbUc1lKNnI2q6tYEXF9xI3gka5q0pcH5G9pgssuq81piZ9JXBuRvTCNKXsvyN64QNETPpK4NyN6YRpS9l+RvaBoiVUqudfURbEFf5iBCrkiMyuyBmX8SRrHpIUsgpKVZaahlXMUgWKp2RgPCa4gVP+S+jf1LZU/5L6N/UkzgAkmwG0nUIHM8T9Q/UHXFqOTtakCy1HBsWIuGRDtAB2sNuwb5X079StXvSyU2okEPW3uDqzaPhba/C+0dIiBQFUAKBYAbABunpdJ0nzzn4jLzc2vGLlVAAAFgNgGycxE9ZiIiICIiAkxISQnKlimJIfP8yA+fPm6THz582SFX4pj589ZISIkhI1fi5amGFmAIwIuP8xTydFN1RVPgoB+apyJMSNi7FMfP4/qTEgPnz5skxI1oxSEkJFZISNXYpj5xklkRJiQq/FyslIiSkavxcxETjpERAqoO1Coa1IFiwC1Ev+YB1MpOoOBe19R2G2oj1WSZUlVA6HOU7N37EHWDiDrE8zKhVq0CXyexN7tTY2Spj936GtsbWMRhRzcPd5ntj6jp+76sfb204mTo/LUroGX0YH8lYbVYYia5gs1dV57mIiAiIgIiddW6UVaq0iGuzKudYZoZldlBN76wh2DDGBT010smShXqBjfOCqq5zMbA2G4bNpIHjPEdJdJVsrJNY5tL9NFTdQMajfrb/iMDtnqfrWoq0kzmCjPG023HGeI0qn205hPU6Li47j332yc+eUuouAnMp0qn205hGlU+2nMJ6XdGTS6JTpVPtpzCNKTtpzCO6Gl0SnSqfbTmEaVT7acwjuhpdEp0qn205hORlSdtOYR3Q0tkhKVrIdjqf3EsFRe0OMWxLGLR8+fNskPnz5ulS1V7Q4yYqr2hxHpI2rsVokhKhVXtDjJCqvaHESNq/FaPnz5skxKhUXtDiJIVV7Q4iRtX4rh8/wAyYlIqL2hxEkKq9ocZC1fiuEkJUKq9ocRORVXtDiJG1divHz583zkfP31/3KxVXtLxGMkKi9ocR8+GQq/FaJKViqvaHESDZXTBsaiA4FgDI2rsa0Xi8z6bS7xOce8abT7xOce8bju40Xi8z6bS7xOce8abS7xOce8bhuNF4vM+m0u8TnHvGm0u8TnHvG4bjipQOdn0nalVtbPXYRuDqdTr4H9iJ2WQfUZUhMsUU22LVW/UP631028G1YMZ1pyyl3ic495wcrpEWNRCP+5bSrPjwznlRy8GGfn1XtUcMAQQQdYI1giWT59TdKevJspFA9lXVqRNv1U2uLelj4ibqP1TVp2FTR6w3slTq29QjZy/8xMuXBlPXlhy6fPH7vZxOr6H6YTKgxRWUqbENmk8VLD/ADEpuNiqyx2s6vKOig9ZapZgFKsVFs1mUMqkm1xYO2oHXqnaROOM1XJEdlZlzioYC+sfda9xsOwf5nOh0+7XlE6T6hyPK6iOEdCoJZVUMjmwBVWa7Z33AnVm7sDf0K3sL7d8CnQ6fdryiNDp92vKJoid3RmbIqZFurXlEryfo6lTVUWmuaqqouoJsosLk7dQk8qWoc3qmRfuGdnqWum8LZls2BNx4TrugqRVq5zGRGdSoZSn6QCM0k79rb43R2eh0+7XlEaHT7teUTREboz6HT7teUTLV6Hyd6i1GpKWRXRftFs2oULathN0XXu14mdlPOdOUarjMZBUDOQjojA0KdhnM33HOe4+0gAa9mo3bo7Zei6A2UaYv5ROV6OoggikgI2faPSaU2D037ZKN0VaMnYXgJCpkiMCpRbEEHUL2OqaJmykVDm9UyL9wz89S10sbhc1hZr21m41HVG6FHIqaKqhFzVAAuATYC20yzR17C8BOt+n0ZVrBldf9eqVzr3Ks11ILayLTuI3RTo69heAjR17C8BLonNjG2QUy61Coz1VlGFnKk3Gwn7Rr9cZf1CdheAnnsqyeocszjTc2agabi+YtMB+sU67A3JuLa85NttXpo2KuoTsLwEdSnZXgJbEbGarkiMrKVFmBBsADYi2oymj0VRRVUU0IUAAlQT9osLneZbly3puPu1qR9t87WN2bY39DKuhy3UUc9WVhTQMGvnBgoBBvrOsbd8bNp//AB1Huk2W/EbJMZFTH/5ryiaYg2z6HT7teUShei6IdqnVrnsoU/aLWUkjV+83zpEBOWMRTZVVbF805tRmCn8tgCgWtiTBt2eh0+7XlEaHT7teUTREG2fQ6fdryiQqZDTYEGmliCNSi+vVhNcydIKDTYOCykWIClybnsjaPCDaGT9GUaaKi01zVVVF1BNlAAuTt1CXaHT7teUTH9P0nSgiuCGGcNYsSM5rHN/QCLELc5osN07SBn0On3a8ojQ6fdryiaIg2yUMhRKjVFUBnVVNtQspYjVj9x1zidM2TZUMs6z7GpmnUCm7BVGdSzVIH6tTG/r4RA9LERAREQEREBERAREQEREBERAREQEREBERAREQEREBERAREQEREBERAREQEREBERAREQP/2Q==;" vertex="1" parent="GTfu7ck5MZX2i5u8NP1Y-569">
          <mxGeometry x="54.763176162759656" y="17.86904761904762" width="74.23682383724035" height="39.03684519677471" as="geometry" />
        </mxCell>
        <mxCell id="GTfu7ck5MZX2i5u8NP1Y-571" value="" style="shape=image;verticalLabelPosition=bottom;labelBackgroundColor=default;verticalAlign=top;aspect=fixed;imageAspect=0;image=data:image/png,iVBORw0KGgoAAAANSUhEUgAAARMAAAC3CAMAAAAGjUrGAAABLFBMVEX///+Hy/Co2ff7+vrX3eHHz9Z/x/CDze99yfLu9fqNyuizwMmGzOyJzO6t1vCwwMjl8/2r2/a03vHY7/el2/XJ5PPL6vwAZb///vr7//8AZ7oAZbvS6vkAacX///cAZr+JsdwAaLsAZMP0//8AaroAYbkbd8G4wsUAXboAa8YAY8cAaMkAYq3p+PyVvNpDjsvi7O2+zs9Yl881hMUmd8cwf8u81OUshs9Vi71rquJZmM2rzuRapth+vulBmtyEzvuFuNlpuOqYyOmn0N0bdLhXjtFhs+H/+et2pc6K0eY7f7hNpeKkxOBfsulqwOGAruEPdbKJx/pjnMvT7+4Aa7BlnsOu5Phys9qawdmY2/5ooNS+5/3S8P+DveVOl8OhucuOr83i3+De5ffBv7d1pIXpAAAKhklEQVR4nO2dC1vayBqAc+kBZAk1NzPJkKQJSSQEiAcQW8FFOWml1q17rGsr4ra75///hzPBtXXlosVcWDvv89RaqOnMy/d9800SKEFgMBgMBoPBYDAYDAaDwWAwGAwGg8FgMBgMBoPBYDAYTLJsbaU9gtXj2b/THsHq8exfaY9g9cBOpsFOpsFOpsFOpsFOpsFOpknYiSwTABDah0az1d5+d1wiDmmaTnQEDyBpJ8gI6OxUJFOHhmLaLzn0CEh0CPeTdO4AmX9ZUVSr5b/yty1VtXe3UOysFok6ATIgupaqOL0Mk6/nc3s9R4FORwOrZSVBJ6AMNKKhuNbPfYYkc2uZbLbQ/xmqtWNCW6makqATrUyD/YrXPsiT5LUTErk5OHMrDW2lAiVBJyhxripqsMcUCn85yZIkU9hzdHuwUmU2SSfEfyqq00dRwtzECSJLHgQG7Grl1YmVJJ0803VnbyLimxOmkO0fBK5SOlwZJUk6qTvQPcgzub85IbMog95YalCXVyZ/knKC+tfXlvmmkJskzm0nhUIh/4slNbVkBvIAEnICZK0hwXd98is3TiZa0JJsHgN5RTrahJzIhyI0Wn1mphMSLURtw+K1Felok8qd8pnrZPLZ2XGC8mfPclursvQk4gSVz6Fae0PeCpPbThhk5e07WG2sSElJwglNaCKEfo4kZzu5DpaWqfCrISUJJ4AuH3lnGXKRk/7bjOG9/HFyB+38JKVXWOgEPfuuVj2OfzAPIJF6IlrGDrk4TsLsCarWlnyY/hY5kdx56dVyBeY+J4UDBY4Oy+n3KEk4KVaMd9k7qTPDCUP6RkVcgRY/dicykAP31xxzf+6gQutILeIHyB1a268Yv9yd/WwnZE+1jp9+nMiAt/S/NfULnDDMNmynf0NM7HECTiVrb1rJrHqSzWbfS7WT1AMlXidoUydKuk8+yMmEFjRKGp1u7xavE7T59z0rW2ByD3TC9BXzd7oc55juJ1Yn4eUcSeoV7q7DC5yQTUnvpLztidUJTZcDIyD7mRnJM9tJLp9xzBbxhHOHJhrQezOjmMx1kmHInmJ2iVS7lDid0OW1X6s7uVmZM7fGkpncdi0oA5CilHhr7NBU35P9WVOf46SQIws9T2mkemo2NicyKpTrluoX7jb1C52Eeca0jPaWnGKdjc0Jep3B0Kzlwus335M74f7Yll48yTjRykCE7u73O2EY1Li560/RiSxrvm5lyO+Pk/8y7yE8jWlYDyG+GgtE2/j57expL3SCaEJb1Oi0WvwYa+yO0s4WZi869znJBKpPaHJK63F8cdL1lHdMf3Zzcp8TsidJRS2t05DxOAEyIW+7Ti5DLueEybahT6R1GjImJzQ4NpWr+XFwX5wU9iDspnWpNB4nslYPvKPx0k76eT4wdp6UE1DWGroy4Gd3sA9wwmTrV1BK69RsLE7kw3XD2Ln8sLSTQm6ddQyjTNNptPgx1ZOhpJNcaYGS+51klGqDSOVu4nic8DWpKXDL507ohGsZSv2pOEHTGKpWnio+0knmrPolla1g9E6ArJVq1Sb72DihBN+0UrkjJXonMpBPVWXAPdoJS1pw+DTiRNY6LhwJj48TVmgqlhj18B5AHHHie2cCG4ETFCjqb0Tyd0NG70QrQvOX8FV+rBOKYnd1RQSJvzkuhhrrGI4gROKkeHGmtpI/XR29E7T5OzjnookT4SOsdhO/1hOxExqsGapPTeYTgRNK2HGdxE8ZROsEbf5eqVaGjcwJd6VU95PuUaJ1ImuiITXZqOIEVaVzXzL4KIf4ACJ0AkInr23rgorOCUUxNe+USPZsdZROaKAd27B3HpmTyXF6kt1J9n2lETqRCbDWdgOKi9QJdxF4QTnR/XGUcQLkkxrco86pqGpsiMDt2eZ+onekROcEyICveM2vMR+RE6oo+DWPR0dP7I6uCONEAy3PuZlJdE5YNu8qPgDJtSlR5k7Dkz6eRx4nLMu+MioD7Z/nBI2Yd3VfECJ3EtbZbcvYSu7KRkRO6DWtfOTVmG/ziNAJK2QUd/ef54SQ9yX7oxCLE6rIJfp+p8ichO+VFWJygtaenZqeWIsfhRNU/Oh6YFpMkYrJCcX2z9QjOaE7DSKJEwCIke0esGxsTij2AEpDIpk7RKNwQgP5UxU2qWKMTlDnJsHiP8gJIVpWWwg9xOaEKl4EllV6/GAfQAROZK3uSFafuxPsUTs534Nmq04nECoROAHlI1c5uKMkcidoTTtQzJdlLf4yG0WcDCWlJxTjdcIKQlHYVcM6G8GsF/NYJ2i3+sI2ffbuyxp5jUV/LlItKDUAIce89Xmsk/Jho6K3LqaURJ47EzEX2zXjmIj70xAfHSfHVSWgZkwgDiccO2jrejfuO3Ue62RQsRzmdk8foxNBELi8pSjdaKY+l6WdaLJMa8S+DQNyxisaT5yEhyUNXerGe119aSeo0GnlL9BzmLurcKxOuPNMuwYbcpyfm7m8E1qun6JaQnKJOhE4Nt+uVUdxRsqyTgDQSjtQ2bng7jYm8ToJQ2XgGPZOHa0+MWlZyglN0xoonsFac+7AY3QicGg/aDudSZsSR6e/lBOggfrI9tz98ZwgidcJW+S/eKo6jOuK6XK5I3ctFQbUeimNOOEuKL4+CBTP6cTTu323kzBiO77uwtHlxnppRmMSuxPUIfJ8SWzaqtkUwfVHoUfa2X6fE5oGmib60FWOijyflpMicrJRKg0CE1abvHwoh6TmBBD1bstWpbP9y9LGxmV6TkobpY3xxj5qVSp+pyxrkZ5BmOck/Ddu5IPJPQPo61rnN8t0YfDxsoSUlNKNExQpY+5VG7pVZyiuEdcrszw5OXxNGDxLqZrhRA5rRrj6ozwBaNmVy+Gx5T+Pd9sShLB1tTFGRkLSdDKhxF9eobitQWc04MP/TgC1cmX5GjR6DRDLJNW0EzAh9CJfHxEQ651Pv/+KNl/QPjulxuOSuLEiTsJYGVO7hiQpirV92uggMZpGIBkg1FJe7kTLrNwJj4YOK9dLne6n4W5gmdWqWfHcYNQd34TIijgJEccfuj0HSlBXbVvabu43usX1NTqM8+WqzLPPL25x8mJ4MhqNmn5ru+16kmSakul5JqwFR70Bh4RM6shXLet8eNV/NkXkhGTmk6lnCvOffbsmzD2yILDIySRWS+GIxpMhsVenLcdVFSiZkg0rtmI52zuvXzdHo5OT21P8cnLvB3v98aWqS5Kk6+hr+I2ko5IR/mZYNUmCihP4px8H55fj0u0A+epkfpwIyEluAZl6Lpsj5zzZf7+oj6WoMT81Fn48HovFwSv0eqLtkI1eTqiH5U83VXUyr+vpoeVbBH+Vh/lO2s43Wgjf93ev5XY7JV4U0SsRtkiz+FPkivPguE4pv4gtcsGTZKkz98gIcXo8KIdCPqAR87xYPG68eDE83W0iRYjtrzMMnDOR/ov5ubP5/IbNnxCb33j+/Kfnm5MHn4e/ppn12Lcnf5r86Dw+/+/z/Oc3Fx0ZDWVzejzXB9u8/mbz1jy+zunm7938xB/znNA/LvfWWgwGg8FgMBgMBoPBYDAYDAaDwWAwGAwGg8FgMBgMBoPBYDAYDAaDear8Hxjpis2a6XmXAAAAAElFTkSuQmCC;" vertex="1" parent="GTfu7ck5MZX2i5u8NP1Y-569">
          <mxGeometry y="21.724999999999998" width="60.68034988304694" height="40.37930579642865" as="geometry" />
        </mxCell>
        <mxCell id="GTfu7ck5MZX2i5u8NP1Y-572" value="" style="shape=singleArrow;whiteSpace=wrap;html=1;sketch=1;fillStyle=auto;strokeColor=#2d7713;fontColor=#080808;fillColor=#86ea96;" vertex="1" parent="GTfu7ck5MZX2i5u8NP1Y-569">
          <mxGeometry x="49.07710109096973" y="40.81666666666666" width="11.603248792077201" height="19.091666666666665" as="geometry" />
        </mxCell>
        <mxCell id="GTfu7ck5MZX2i5u8NP1Y-573" value="" style="verticalLabelPosition=bottom;html=1;verticalAlign=top;strokeWidth=1;align=center;outlineConnect=0;dashed=0;outlineConnect=0;shape=mxgraph.aws3d.file;aspect=fixed;strokeColor=#6c8ebf;sketch=1;fillStyle=solid;fillColor=#dae8fc;" vertex="1" parent="GTfu7ck5MZX2i5u8NP1Y-569">
          <mxGeometry x="26.176109360815936" y="3.761904761904762" width="6.252463751809236" height="14.331025140016443" as="geometry" />
        </mxCell>
        <mxCell id="GTfu7ck5MZX2i5u8NP1Y-574" value="" style="verticalLabelPosition=bottom;html=1;verticalAlign=top;strokeWidth=1;align=center;outlineConnect=0;dashed=0;outlineConnect=0;shape=mxgraph.aws3d.file;aspect=fixed;strokeColor=#b85450;sketch=1;fillStyle=solid;fillColor=#f8cecc;" vertex="1" parent="GTfu7ck5MZX2i5u8NP1Y-569">
          <mxGeometry x="81.28595671062469" y="3.7619047619047614" width="6.252463751809236" height="14.331025140016443" as="geometry" />
        </mxCell>
        <mxCell id="GTfu7ck5MZX2i5u8NP1Y-575" value="" style="endArrow=classic;dashed=1;html=1;dashPattern=1 3;strokeWidth=2;rounded=0;fontColor=#080808;endFill=1;" edge="1" parent="GTfu7ck5MZX2i5u8NP1Y-569">
          <mxGeometry width="50" height="50" relative="1" as="geometry">
            <mxPoint x="37.197629091685805" y="18.80952380952381" as="sourcePoint" />
            <mxPoint x="74.39525818337161" y="18.80952380952381" as="targetPoint" />
          </mxGeometry>
        </mxCell>
        <mxCell id="GTfu7ck5MZX2i5u8NP1Y-580" value="" style="shape=image;verticalLabelPosition=bottom;labelBackgroundColor=default;verticalAlign=top;aspect=fixed;imageAspect=0;image=data:image/jpeg,/9j/4AAQSkZJRgABAQAAAQABAAD/2wCEAAkGBxIQEhASEhAVFRUXFhEYFxcXEhUVFhUWFxUXFhcXFxUYHSggGh4lHRcVIjEhJikrLi4uFx8zODMsNygtLisBCgoKDg0NFw8PFy0dHR0tLS0tLS0tLi0tLS0tNy0tLS0tLS0tLS0tLS0tLSsrLS0tLS0rKystLS0rLSstLS0rLf/AABEIALUBFwMBIgACEQEDEQH/xAAbAAEBAQADAQEAAAAAAAAAAAAABQQBAgMGB//EAEUQAAIBAgQBCAYIAwYGAwAAAAECAAMRBBIhMQUTIjIzQVFhcSNCc4GRswYUUlRygpOyFYOhQ1Ox0dLiJDRikqLBY7Tw/8QAFwEBAQEBAAAAAAAAAAAAAAAAAAECA//EABsRAQEBAQADAQAAAAAAAAAAAAABERICIVGB/9oADAMBAAIRAxEAPwD9ip8WQo7kMAoU6gXZW6BUA65uwbzQcWopiobhSFOxJsbW0F++eacNpAFcgIO4JLDwFjpYW0HZ2TRSpBFVVAAAAAGwA0AhPbDwjGcscQQxZRVyroRYclTNrEX3LfGUZO4X08X7cfIoyjBCIiFIiICIiAiIgIiICIiAiIgIiICIiAiIgIiICIiAiIgIiICIiAiIgIiIE7hfTxftx8ijKMn8L6eL9sPkUZQhIREQpEwcUxVSnyRRc12OcWJOQIzHLbt0Hnt2yYePuUTKoz5btodPRqw5u4vm/pCa+iiIhSInDG1yYGTiWN5IKFXNUc5aaXtmPeT2KBqT2D4SXicDU5TDcpiKhZ2cNkY0kFqTNZVU7XA3JPjNvCVNQnEsNXFqY+zSvdfe2jHzA7J24h12E/HU+TUhmulOu9B1Sq+dGsEqEAMG7EqW017GAF9jra9SeOKw61EZGF1YWP8AmD2HtvM3Cq7ENTqG9SmQrH7YIulT3j+oYdkK3xEQpERARExcVxLU0ASxqOQlMHbMe0juUAsfBTA8sRiXquaVFguW3KVLA5NL5EB0L211uB2g3tMmFwDcpXC4isCpp5SahcaoCbo3NIJ8B4WlXA4VaSKi3Ntyd2J1ZmPaSbk+c8MF12K86XyxCY54fjCxanUAWqtswF8rKdnS/qnu7DceJ3TBxWg1lq0xepTuQPtr69P3gaeIUzXh6y1FV1N1YAg94IuIHpETq72BJ7AT8IV2ifPU+LYgZc1Ig5iSCtiUJplLWJF7My+a9k96HFqrgWoAXtu5tqSOxTtbWE2LUSAePOSctE6C5GtyMjnKNNDmCjXv8ZW4diTVQOVyk30vcaEi4PjBLK0xEQpERA8vrKWZs62UkMcwspG4J7J6KwIBBuDt4yXh+FsisodTogF0OydEmzdLfnDtsRtNVHAgUUpMSQFVbglSctu0G4274R5cL6eL9sPkUZQkvglFUbFKt7Cv2sWPU0TuxJlSCEiVuKOtR1BVrOVyBecq5Awcm+1zbb1hLc4tBUKnxx32pr2jpk2IuTqBY2Ftu02nFH6QEBi6DTlNQ3camVWBGjEILDtvL1otBl+oicbYGzUxfMRox1s4Wy6c5tb202Mo8NxbVVJZMpGXS9xqqsNbD7VvdNVpzaCEm8Y9Jkw4/tCc/hSWxqfG4X88pSZwz0lStXOxPJ0/wUyQT73z+4LBVICT+IddhPx1Pk1JRk7iHXYT8dT5NSCqMmcRHJVKVcbaU6n4GPNY/hc/B2lOeWJoLURkYXVgQR4EWMK9YmHg9dmp5XPPpk038WXTN+YZW/NN0BERASbhvS13qerTvTT8ehqN7tF/K00cTxPJUncC7Wso73Y5UHvYic8PwvJU0S9yBqftMdWY+JJJ98I0yfguuxXnS+WJQmDBddivOl8sQN8m8PHJVatH1TerT8mPPUeTa+AcSlJ3GeYErj+ya7ezOlT4DneaCCqMncWxTUylnCgioblc1yoGVbeNztrpKIiFQv4zUuF5IA6XuTp6XI2gGgA7TpOBxqrcXpDVVIW5zEkIbLzdbZjfyMu2i0Jl+orcabNzUBTsNzro5JJt0RYaiaMFxF6jAGnZdRmuTcgXuNOiewylacwZSIiFIiICIiBP4X08X7cfIoyhJ/C+ni/bD5FGUISEREKREQEREDFxiuyUmydNiqJ+JzlB91yfIGaMLQFNERdlAA8gLTFUPKYlF9Wkhc+0e6J8FFT/ALhKUISdxDrsJ7Sp8mpKMn8Q63Ce0qfJqQVQiIhU1vRYkH1ay2PtKYuPil/0xKUw8ZpM1IlBd0IqJ4shvb3i6/mmqhVDqrqbqwDA94IuDCPSInBMKnYr0lelT9WmOVbzN1pj452/KJSk7gozK9Y71WLjwQc2n/4gN5sZRhITBguuxXnS/YJvmDB9fifOl+yBvnDqCCCLg6Ed4nMQqfwViENJtTSY07ncqLFCfNCvvvKEnVTyeIRvVqqUP40BdPivKfASjCQiIhSIiAiIgIiICJDTlxTcMtRm9HswBzXHKZW7E8tbA27JRppU5JQHHKZV5zrfXS5Kgjx7YSV5cL6eL9sPkUZQkvggcNis5Uty+pVSo6ijsCT/AIypBCIiFIiICcOwAJOgGp8pzJ3G2zItIb1mFP8AKbmp/wCAf32gOCDMhqneqxqflIAQf9gX33lGcKLCwnMBJ/EOtwntKnyKkoSdxDrcH7Sp8ipCVRiIhSTeEczlaH923N9m/OS3gOcv5JSk3G+jrUavY16T/m51Mn8wy/zIRSkv6R4tadHKWymq9OiD41Gy6eNsx90qT436UVuVxNNBcrQNBjlK9ZUqoAWU7qFFiRqOVEHlcj7BFAAAFgAAB3ATtEQpMGD6/E+dH9k3zBg+vxP8n9kJW+IiFYuL0C9JsnTWzp+NCGUe+1vImaMLXFREddmUMPIi89ZO4XzGrUfstmX8FS7D4MHHuEIoxEQpERAREQEREBERAn8M6eL9sPkUZQk/hnWYv2w+RRlCEhERCkREBJtIcriHf1aQyL+NwGc+5cg97TXjcSKVN6h2VSbDc2Gw8TtPLhWGNKkqsbubs573Yln91yYRsiIhSTuIdbhPaVPkVJRk7iPW4P2lT5FWEqjERCkzcSw3K03S9iRzT9lhqre5gD7ppiBiw2PDUBWbmgKS4+yVvnB8iCPdPiwSyq7WzVK1OoQWI5xqpfISLq6rlRqR3CgjYyl9InKM+GAslciqWN8iICOWViuqqzcmCezlmPZMmL0te/W4cHMMxuKiZVqf9YHQqjpLobkCHO191ERDoSfg+vxP8n9koSMtd1xGIyUS/U6hkW3NOnOIhKsxJ/1yt91b9Sl/qj65W+6t+rS/1QaoSdxD0dSjW7L8m/4ahGU+5wo8nM5+uVvurfq0v85N+kWJrNh6g5Fqemhz0muToFy3ubm1rWN7WgtfRRMHA8Y1ajTaouWoBlqKd1qLow/9+RE3wpERAREQEREBEk0eKs1Oq+RbqmcLmtcFS2VjbRhbXzlCpWITMEZtBzVtc37sxA/rCay8M6zF+2HyKMoSXwSqWbFkoyXrDRrXHoKO9iR/WVIIREQpETpVqBVLMbAAkk7ADUmBgx/patKj2Aiq/kp9GPe4v+QylJ/B6ZIas4s1U5rHdUtamvhZbE+JaUISEREKSdxHrcH7Sp8irKMncR63B+1qfIqwlUYieeIcqrEC5AJAG5IGwhXpEn8HoMisHOpYHUgkcxRrbS9wT7++88PpNjzRokKQHc5EJuApO7sQDZVFyTsLQm+ny3F6z16zYimxGR8tO1jmpUiVrFDs+pctTO4VSNp61dky7ZqFshuBTaqpGUnp0G3HbTOmx07UqQQBApsCq5SQrZlHNRmGi1gOhU6LjQnaT8Mi0wtAOGK1KbqDemcrVlBZPssCCtSl22Dedc36TERI6kn4Pr8T/J/aZQk/B9fif5P7TCVQk7ieCZznDXygFV1sWUlh2210Bv2CUYhWbBtUIblAAb6W0uPK5mgi85iBNHosQfs1hf8AmoLH3slv0pSmTieGNRObo6kMh7nXUX8DsfAmemBxIqorgWuNjupGjKfEEEHyhHvERCkREBERA6LSUXsoF730Gt953iIE/hnWYv2w+RRlCT+GdZjPbL8ijKEJCIiFJL4h6eouHHRAD1vw35qfmIN/BT3zVxDGCkoNszMcqKN3Y7Dy3JPYATOvDMIaanMb1GJao3e53t4AAKPBRCNkREKREQEncR63B+1qfIqyjJ3EutwftanyKsJVGIiFTsZg2VjWokB9M6k2SqAPW+y1tm+NxPl6mOOKqDEWZVykURYMwUdZUUKSKhvcPSOpQAjWU/pTxDPfDIR6prsSQqU22Viuq5+iWHRBueyT8nZZr3VbEhXzqOapbZa6i2Sp0agsD2GGK6m1vVAyjtLIKZOgJ3bDt2N0qR8JO44qplrsGzU3pA3XMxHKIeTqj+8AAKVR0gLb70gdiD9pgVXW+zuiHt7KtA79IazLxAHIuXOCGoW5IhmVDVUrkzaVKJOq31RtNjpWa+9oVVdVZTdWAIPeDqDPSfKfR/iHINyDkCmzMKRzFgr+vRzk3exsc+2ZmXsE+hONXlBSUFm3a21MWuMx7Cewb9u0jpK9aWIRyQrAkb2O3/6x+EyYTr8T5Uf2me+EwSUr5AdQo1JOiiwGvhPHCdfifKj+1oG+IiFIiICTE9DXI9SsbjuWqBzh+YC/mrd8pzwxmGWqjI17HtGhUjUMD2EGxHlCPeJh4bima9OpYVUtmtoGB2qKO4227Dcdk3QpERAREQETyxFcU1zNtoNASSSQAABqSSQIp4hSocMMpAIJ00PntAycM6zGe2X5FGUJN4S4Z8WQQRyy6g3HUUZ2fjFK5VRUcgkcylUcXGhBcDKD5mE1QmTH45KIF9WY2RBq7t3KP/ewGpmflcTV6NMUV+1Us7+6mpyj3t7p74LhyUyW1Z26TubuR3X2Uf8ASLDwgeeBwTZjWrWNUggAarSQ+onnYXbtI7gAKERCkREBETq7gakgeZtA7SdxLrcH7Wp/9erOcRxzC0758TSFhcjlFuB32BvIvEfpDTeph+Rp1app1WuOTNMZmoVAq5quVbnMLC+t9LwlsfVSDxnjuUmjh7PWuATfm0yRcBjtnIByoSLne0k4zieJxHr8ghDG1IF6pUDnHMQDdDo9MAOBqDPClSVAQAoXKL3OZMjkkZn3eixuVq9KmxN+2Gb5fDC0sgFmZjz2z2LOx2qVAp1LaWq0D3XUTuwFvVAyqNTmpim3RBbdsOfVfemfC4nbW50a+YAgkK5qAc1WbZa4FslTo1FsCdROA2xB+2wKob3/ALR0pnt/vaB8SBeVlyVN7HMTmAILZXLgc1Wb1a4HQqbVBoeyYuKAFF2a9SmQMxo5jyqh2RhrSfsqU9vWHbNegHqgZQNTmpimxuAW9bDsei+9M+F7ZeMEBDmIHpKAblUzjMrrZawHrgdGoNKi6b2grRURWUg5SpQbgohpr0TYaph1PRUa1GF9tZv+j3E1ww5CtdQGAWq27F7lRXPq1iNbE63F7E2mS5BJJYHMrElczhyOazJs1Yi2SltTFiQNBOCgIy5b9NMoa+p6ymrndjrytfs1AN9ivtpgwn/MYnyof4NPmsHi6tC3JVFNO2bI9xSCX1qId6VIdFb5s52FtZrwX0gC1az1qFWnm+riwQ1bMQ1ltTuwY3BykBgNwJGun1USZR+kGFa1sRTBN9GbIdDY6PY6HSUKdRWF1YEd4IP+ELrvERCkREDHxDBcplZGyVFvke1/NWHrKe0eRFiAZxgccHJRxkqr0kJ7PtKfWU9/uNjpNsz4zBJVADjUG6kEqynvVhqD5QjREm5cRS6JFde5iEqD8wGVveF84/i4XrKNan50mcDzalmUfGDVKJwrXAI2MQrzxNAVFykkaqQRuCpDAi/iBOqYRAgp5QVAAs2t7d9957xAgs74M4lhh702dXGRkW16dNCMpt2qfjNv1yv91P6tP/OacXVUAgi+hOoOXTXnMAQBPPhmKNVCWAuGZTbY2O48xaEeX1yv91P6tOc/XK/3U/qpKEQYk0+KVmd0GFN1y39KlucCRb4T2+uV/up/WSeePxop6oq52IHODKXsDYA217db2AlSBP8Arlf7qf1knVsbXAJ+qnT/AOZJSnSqwAJIJHgCf6CBExWJr4nDsEwxHK0zlJrKLZ10Omo3kIfRyrscIhGi3NZcxQaq18ulRT27MNx3fX4av6RqYQKipTK7g6lxYqQMtsomyE518XS4Vi1tbD01PPPNqKAHPrBctsrjp0zpc3BE88RhMSmRThk5+WmqmvmXZnakxy3KAKSjdJDbcaT7iYeK4jk1UgLfMbF+itkZr++1vzQcvnf4bi760QecLnlwGIA5tS4XSqu2YaMNGHdwvDcZp6BAeedKq2Vz6yrltlcdOnsTqLGfXUXzKrWtcA27ri9p3g5fGfwvF2/5an0VAU17ra92ok5bmmN1PSU+Gk6phcSz1E5EEq1MsTXAZgRzHzBdKq26frAWPePtZjz2r5Qi2ZGYtfnEoygAi21m74OXza8NxmnoaYPPNxVFg59ZVy2s46dPY7ixnjiOD4xgAtJaZHJEFa4JUK4ZqfOQ5kFrrcXU+E+2iDl8XXweJpoztQUKgqk5cRzlp2JbKxW/KP61Q662HfORw3FlR/w9LVBzeWshI6FKwXSiv2Rqx3Pf9hWUFWBAIIIIOxBGoPhMnCMWaqFjlIvZSt7EWBuAddyRrva9heE5fPHhuMufRJe6kMawJLdtVhksWA0Reiu+s4XheLuPQIBdhpiOcEO+Vsl87npVDrbQd8+wiF5fE4rBYlFGfDUjmyJl5bmli1qdO2TSitwSBqx3nniPo9iSHyUKSuQcr8sVbMw59RsiC57FUc1fGfV8Zr8nTzWQkG4DdpUFhbUa6d/+U202uAe8AwnMYExGIsL4dez+3H+mc/WcR93X9cf6JQiGsSv4jXz8n9WXNlzdcLWvb7O89frOI+7p+v8A7JycX/xAp5PUc5yrbgroDa1ud37zfB+p/wBZxH3dP1/9kfWcR93T9f8A2ShOtRrAnuBgxMwvEK9RQy4dbXYa1/ssVPqd4M9frGJ+7p+v/snbg+JNRCSACDY5QMt7BtCGYHpb3m6BgSviLi9BAO/l7/0yTmbogwiIhSdUQKLAADuAsJ2iAiIgdXphtwD5i87REBERA4tOYiAnDKDoRfznMQEREBFonTlVuRcXFv67QOajhQSSAALkk2AHeTPJsXTAQlxZ7ZfG9tR4ajXxE5auhJXMLm+nb5+XjJ2I4dTIo3qdWFVTpezFBoewkouo7zCN4xtMnKHBN2Ww11W2Yad1x8Z7IoGwA8haSk4NTQqQ5FnDDMQxB5miudRfIL99zKaVlIuGFtdfLeCPSJ1SoDexvY2PgbA/4ETtCuGUHcXnMRAREQEREBERA4AA2E5iICIiAiIgIiICIiAiIgIiICIiAiIgIiICSq3Dg9Vzm7VbVQdwoNr7H0Ysey5iISvM8Ap6AMQLW0A+wE+HNvbxnK8DGcOah0toFCjpK2gGwuo8dTrOYlMhjuBLV5TnsuY37LDmkEDuuSW851rcCDXHKNYtmtYdK6ncdnNGnnEQZGzhuFFPMAb2yKPJUAm2IkWEREBERAREQEREBERAREQP/9k=;" vertex="1" parent="GTfu7ck5MZX2i5u8NP1Y-492">
          <mxGeometry x="167.88" y="535.5" width="97.01" height="62.94" as="geometry" />
        </mxCell>
        <mxCell id="GTfu7ck5MZX2i5u8NP1Y-228" value="&lt;font color=&quot;#23497d&quot;&gt;Fail&lt;/font&gt;" style="swimlane;whiteSpace=wrap;fillColor=#f8cecc;swimlaneFillColor=#FFCCCC;fontFamily=Tahoma;html=1;strokeColor=#b85450;opacity=50;" vertex="1" parent="1">
          <mxGeometry x="334.5" y="114.5" width="117.39" height="639.5" as="geometry">
            <mxRectangle x="20" y="20" width="80" height="23" as="alternateBounds" />
          </mxGeometry>
        </mxCell>
        <mxCell id="183" value="&lt;span style=&quot;color: rgb(35, 73, 125);&quot;&gt;Single data consistency&lt;/span&gt;" style="swimlane;whiteSpace=wrap;fillColor=none;swimlaneFillColor=#BAC8D3;fontColor=#2F5B7C;fontFamily=Tahoma;html=1;strokeColor=none;opacity=25;startSize=23;" parent="GTfu7ck5MZX2i5u8NP1Y-228" vertex="1">
          <mxGeometry x="-121" y="-25.75" width="238.39000000000004" height="691.5" as="geometry">
            <mxRectangle x="20" y="20" width="80" height="23" as="alternateBounds" />
          </mxGeometry>
        </mxCell>
        <mxCell id="GTfu7ck5MZX2i5u8NP1Y-219" value="&lt;font color=&quot;#23497d&quot;&gt;Pass&lt;/font&gt;" style="swimlane;whiteSpace=wrap;fillColor=#d5e8d4;swimlaneFillColor=#CCFFCC;fontFamily=Tahoma;html=1;strokeColor=#82b366;opacity=50;" vertex="1" parent="183">
          <mxGeometry x="5.5" y="25" width="106.5" height="628" as="geometry">
            <mxRectangle x="20" y="20" width="80" height="23" as="alternateBounds" />
          </mxGeometry>
        </mxCell>
        <mxCell id="GTfu7ck5MZX2i5u8NP1Y-241" value="Replicates are&lt;br&gt;consistent" style="text;html=1;strokeColor=none;fillColor=none;align=center;verticalAlign=middle;whiteSpace=wrap;rounded=0;sketch=1;fillStyle=solid;fontColor=#080808;" vertex="1" parent="GTfu7ck5MZX2i5u8NP1Y-219">
          <mxGeometry x="24" y="102.25" width="60" height="30" as="geometry" />
        </mxCell>
        <mxCell id="GTfu7ck5MZX2i5u8NP1Y-291" value="" style="group" vertex="1" connectable="0" parent="GTfu7ck5MZX2i5u8NP1Y-219">
          <mxGeometry x="9.75" y="232.25" width="75" height="90" as="geometry" />
        </mxCell>
        <mxCell id="GTfu7ck5MZX2i5u8NP1Y-288" value="" style="shape=image;html=1;verticalAlign=top;verticalLabelPosition=bottom;labelBackgroundColor=#ffffff;imageAspect=0;aspect=fixed;image=https://cdn4.iconfinder.com/data/icons/transportation-and-vehicle/128/Transportation_And_Vehicle_3-10-128.png;sketch=1;fillStyle=solid;strokeColor=#2d7713;fontColor=#080808;fillColor=#86ea96;" vertex="1" parent="GTfu7ck5MZX2i5u8NP1Y-291">
          <mxGeometry width="67.13286713286713" height="67.13286713286713" as="geometry" />
        </mxCell>
        <mxCell id="GTfu7ck5MZX2i5u8NP1Y-289" value="" style="shape=image;html=1;verticalAlign=top;verticalLabelPosition=bottom;labelBackgroundColor=#ffffff;imageAspect=0;aspect=fixed;image=https://cdn4.iconfinder.com/data/icons/transportation-and-vehicle/128/Transportation_And_Vehicle_3-10-128.png;sketch=1;fillStyle=solid;strokeColor=#2d7713;fontColor=#080808;fillColor=#86ea96;" vertex="1" parent="GTfu7ck5MZX2i5u8NP1Y-291">
          <mxGeometry x="22.552447552447553" y="21.671875" width="44.58041958041958" height="44.58041958041958" as="geometry" />
        </mxCell>
        <mxCell id="GTfu7ck5MZX2i5u8NP1Y-290" value="" style="shape=image;html=1;verticalAlign=top;verticalLabelPosition=bottom;labelBackgroundColor=#ffffff;imageAspect=0;aspect=fixed;image=https://cdn4.iconfinder.com/data/icons/transportation-and-vehicle/128/Transportation_And_Vehicle_3-10-128.png;sketch=1;fillStyle=solid;strokeColor=#2d7713;fontColor=#080808;fillColor=#86ea96;" vertex="1" parent="GTfu7ck5MZX2i5u8NP1Y-291">
          <mxGeometry x="44.05594405594405" y="35.359375" width="30.944055944055943" height="30.944055944055943" as="geometry" />
        </mxCell>
        <mxCell id="GTfu7ck5MZX2i5u8NP1Y-269" value="Trends &lt;br&gt;are consistent" style="text;html=1;strokeColor=none;fillColor=none;align=center;verticalAlign=middle;whiteSpace=wrap;rounded=0;sketch=1;fillStyle=solid;fontColor=#080808;" vertex="1" parent="GTfu7ck5MZX2i5u8NP1Y-291">
          <mxGeometry x="9.25" y="60" width="60" height="30" as="geometry" />
        </mxCell>
        <mxCell id="GTfu7ck5MZX2i5u8NP1Y-383" value="" style="group" vertex="1" connectable="0" parent="GTfu7ck5MZX2i5u8NP1Y-219">
          <mxGeometry y="453.25" width="77" height="77" as="geometry" />
        </mxCell>
        <mxCell id="GTfu7ck5MZX2i5u8NP1Y-351" value="" style="shape=image;html=1;verticalAlign=top;verticalLabelPosition=bottom;labelBackgroundColor=#ffffff;imageAspect=0;aspect=fixed;image=https://cdn4.iconfinder.com/data/icons/transportation-and-vehicle/128/Transportation_And_Vehicle_3-10-128.png;sketch=1;fillStyle=solid;strokeColor=#2d7713;fontColor=#080808;fillColor=#86ea96;" vertex="1" parent="GTfu7ck5MZX2i5u8NP1Y-383">
          <mxGeometry width="67" height="67" as="geometry" />
        </mxCell>
        <mxCell id="GTfu7ck5MZX2i5u8NP1Y-381" value="" style="shape=image;html=1;verticalAlign=top;verticalLabelPosition=bottom;labelBackgroundColor=#ffffff;imageAspect=0;aspect=fixed;image=https://cdn4.iconfinder.com/data/icons/transportation-and-vehicle/128/Transportation_And_Vehicle_3-10-128.png;sketch=1;fillStyle=solid;strokeColor=#2d7713;fontColor=#080808;fillColor=#86ea96;" vertex="1" parent="GTfu7ck5MZX2i5u8NP1Y-383">
          <mxGeometry x="10" y="10" width="67" height="67" as="geometry" />
        </mxCell>
        <mxCell id="GTfu7ck5MZX2i5u8NP1Y-384" value="Results are duplicated" style="text;html=1;strokeColor=none;fillColor=none;align=center;verticalAlign=middle;whiteSpace=wrap;rounded=0;sketch=1;fillStyle=solid;fontColor=#080808;" vertex="1" parent="GTfu7ck5MZX2i5u8NP1Y-219">
          <mxGeometry x="8.5" y="524.25" width="60" height="30" as="geometry" />
        </mxCell>
        <mxCell id="GTfu7ck5MZX2i5u8NP1Y-279" value="" style="group" vertex="1" connectable="0" parent="GTfu7ck5MZX2i5u8NP1Y-219">
          <mxGeometry x="11.5" y="22.25" width="83" height="86" as="geometry" />
        </mxCell>
        <mxCell id="GTfu7ck5MZX2i5u8NP1Y-276" value="" style="shape=image;html=1;verticalAlign=top;verticalLabelPosition=bottom;labelBackgroundColor=#ffffff;imageAspect=0;aspect=fixed;image=https://cdn4.iconfinder.com/data/icons/transportation-and-vehicle/128/Transportation_And_Vehicle_3-10-128.png;sketch=1;fillStyle=solid;strokeColor=#2d7713;fontColor=#080808;fillColor=#86ea96;" vertex="1" parent="GTfu7ck5MZX2i5u8NP1Y-279">
          <mxGeometry width="71.78378378378379" height="71.78378378378379" as="geometry" />
        </mxCell>
        <mxCell id="GTfu7ck5MZX2i5u8NP1Y-277" value="" style="shape=image;html=1;verticalAlign=top;verticalLabelPosition=bottom;labelBackgroundColor=#ffffff;imageAspect=0;aspect=fixed;image=https://cdn4.iconfinder.com/data/icons/transportation-and-vehicle/128/Transportation_And_Vehicle_3-10-128.png;sketch=1;fillStyle=solid;strokeColor=#2d7713;fontColor=#080808;fillColor=#86ea96;" vertex="1" parent="GTfu7ck5MZX2i5u8NP1Y-279">
          <mxGeometry x="5.608108108108109" y="5.8108108108108105" width="71.78378378378379" height="71.78378378378379" as="geometry" />
        </mxCell>
        <mxCell id="GTfu7ck5MZX2i5u8NP1Y-278" value="" style="shape=image;html=1;verticalAlign=top;verticalLabelPosition=bottom;labelBackgroundColor=#ffffff;imageAspect=0;aspect=fixed;image=https://cdn4.iconfinder.com/data/icons/transportation-and-vehicle/128/Transportation_And_Vehicle_3-10-128.png;sketch=1;fillStyle=solid;strokeColor=#2d7713;fontColor=#080808;fillColor=#86ea96;" vertex="1" parent="GTfu7ck5MZX2i5u8NP1Y-279">
          <mxGeometry x="11.216216216216218" y="11.621621621621621" width="71.78378378378379" height="71.78378378378379" as="geometry" />
        </mxCell>
        <mxCell id="GTfu7ck5MZX2i5u8NP1Y-431" value="Replicates are&lt;br&gt;inconsistent" style="text;html=1;strokeColor=none;fillColor=none;align=center;verticalAlign=middle;whiteSpace=wrap;rounded=0;sketch=1;fillStyle=solid;fontColor=#080808;" vertex="1" parent="GTfu7ck5MZX2i5u8NP1Y-219">
          <mxGeometry x="140" y="195.25" width="60" height="30" as="geometry" />
        </mxCell>
        <mxCell id="GTfu7ck5MZX2i5u8NP1Y-432" value="Replicates are&lt;br&gt;consistent" style="text;html=1;strokeColor=none;fillColor=none;align=center;verticalAlign=middle;whiteSpace=wrap;rounded=0;sketch=1;fillStyle=solid;fontColor=#080808;" vertex="1" parent="GTfu7ck5MZX2i5u8NP1Y-219">
          <mxGeometry x="24" y="102.25" width="60" height="30" as="geometry" />
        </mxCell>
        <mxCell id="GTfu7ck5MZX2i5u8NP1Y-433" value="Trends &lt;br&gt;are consistent" style="text;html=1;strokeColor=none;fillColor=none;align=center;verticalAlign=middle;whiteSpace=wrap;rounded=0;sketch=1;fillStyle=solid;fontColor=#080808;" vertex="1" parent="GTfu7ck5MZX2i5u8NP1Y-219">
          <mxGeometry x="19" y="292.25" width="60" height="30" as="geometry" />
        </mxCell>
        <mxCell id="GTfu7ck5MZX2i5u8NP1Y-434" value="Trends &lt;br&gt;are&lt;br&gt;inconsistent" style="text;html=1;strokeColor=none;fillColor=none;align=center;verticalAlign=middle;whiteSpace=wrap;rounded=0;sketch=1;fillStyle=solid;fontColor=#080808;" vertex="1" parent="GTfu7ck5MZX2i5u8NP1Y-219">
          <mxGeometry x="135.16000000000003" y="378.25" width="60" height="30" as="geometry" />
        </mxCell>
        <mxCell id="GTfu7ck5MZX2i5u8NP1Y-292" value="" style="group" vertex="1" connectable="0" parent="183">
          <mxGeometry x="112.61000000000001" y="138.25" width="125.78000000000002" height="112" as="geometry" />
        </mxCell>
        <mxCell id="GTfu7ck5MZX2i5u8NP1Y-285" value="" style="shape=image;html=1;verticalAlign=top;verticalLabelPosition=bottom;labelBackgroundColor=#ffffff;imageAspect=0;aspect=fixed;image=https://cdn4.iconfinder.com/data/icons/transportation-and-vehicle/128/Transportation_And_Vehicle_3-10-128.png;sketch=1;fillStyle=solid;strokeColor=#2d7713;fontColor=#080808;fillColor=#86ea96;" vertex="1" parent="GTfu7ck5MZX2i5u8NP1Y-292">
          <mxGeometry y="16" width="71.78378378378379" height="71.78378378378379" as="geometry" />
        </mxCell>
        <mxCell id="GTfu7ck5MZX2i5u8NP1Y-286" value="" style="shape=image;html=1;verticalAlign=top;verticalLabelPosition=bottom;labelBackgroundColor=#ffffff;imageAspect=0;aspect=fixed;image=https://cdn4.iconfinder.com/data/icons/transportation-and-vehicle/128/Transportation_And_Vehicle_3-10-128.png;sketch=1;fillStyle=auto;strokeColor=#2d7713;fontColor=#080808;fillColor=#86ea96;imageBackground=none;rotation=-180;" vertex="1" parent="GTfu7ck5MZX2i5u8NP1Y-292">
          <mxGeometry x="29" width="71" height="71" as="geometry" />
        </mxCell>
        <mxCell id="GTfu7ck5MZX2i5u8NP1Y-287" value="" style="shape=image;html=1;verticalAlign=top;verticalLabelPosition=bottom;labelBackgroundColor=#ffffff;imageAspect=0;aspect=fixed;image=https://cdn4.iconfinder.com/data/icons/transportation-and-vehicle/128/Transportation_And_Vehicle_3-10-128.png;sketch=1;fillStyle=solid;strokeColor=#2d7713;fontColor=#080808;fillColor=#86ea96;" vertex="1" parent="GTfu7ck5MZX2i5u8NP1Y-292">
          <mxGeometry x="53.996216216216226" y="16.001621621621666" width="71.78378378378379" height="71.78378378378379" as="geometry" />
        </mxCell>
        <mxCell id="GTfu7ck5MZX2i5u8NP1Y-240" value="Replicates are&lt;br&gt;inconsistent" style="text;html=1;strokeColor=none;fillColor=none;align=center;verticalAlign=middle;whiteSpace=wrap;rounded=0;sketch=1;fillStyle=solid;fontColor=#080808;" vertex="1" parent="GTfu7ck5MZX2i5u8NP1Y-292">
          <mxGeometry x="32.890000000000015" y="82" width="60" height="30" as="geometry" />
        </mxCell>
        <mxCell id="GTfu7ck5MZX2i5u8NP1Y-336" value="" style="group" vertex="1" connectable="0" parent="183">
          <mxGeometry x="123.82" y="336.25" width="103.36" height="88" as="geometry" />
        </mxCell>
        <mxCell id="GTfu7ck5MZX2i5u8NP1Y-337" value="" style="shape=image;html=1;verticalAlign=top;verticalLabelPosition=bottom;labelBackgroundColor=#ffffff;imageAspect=0;aspect=fixed;image=https://cdn4.iconfinder.com/data/icons/transportation-and-vehicle/128/Transportation_And_Vehicle_3-10-128.png;sketch=1;fillStyle=solid;strokeColor=#2d7713;fontColor=#080808;fillColor=#86ea96;" vertex="1" parent="GTfu7ck5MZX2i5u8NP1Y-336">
          <mxGeometry width="67.13286713286713" height="67.13286713286713" as="geometry" />
        </mxCell>
        <mxCell id="GTfu7ck5MZX2i5u8NP1Y-338" value="" style="shape=image;html=1;verticalAlign=top;verticalLabelPosition=bottom;labelBackgroundColor=#ffffff;imageAspect=0;aspect=fixed;image=https://cdn4.iconfinder.com/data/icons/transportation-and-vehicle/128/Transportation_And_Vehicle_3-10-128.png;sketch=1;fillStyle=solid;strokeColor=#2d7713;fontColor=#080808;fillColor=#86ea96;" vertex="1" parent="GTfu7ck5MZX2i5u8NP1Y-336">
          <mxGeometry x="22.552447552447553" y="21.671875" width="44.58041958041958" height="44.58041958041958" as="geometry" />
        </mxCell>
        <mxCell id="GTfu7ck5MZX2i5u8NP1Y-339" value="" style="shape=image;html=1;verticalAlign=top;verticalLabelPosition=bottom;labelBackgroundColor=#ffffff;imageAspect=0;aspect=fixed;image=https://cdn4.iconfinder.com/data/icons/transportation-and-vehicle/128/Transportation_And_Vehicle_3-10-128.png;sketch=1;fillStyle=solid;strokeColor=#2d7713;fontColor=#080808;fillColor=#86ea96;" vertex="1" parent="GTfu7ck5MZX2i5u8NP1Y-336">
          <mxGeometry x="44.06" y="7" width="59.3" height="59.3" as="geometry" />
        </mxCell>
        <mxCell id="GTfu7ck5MZX2i5u8NP1Y-270" value="Trends &lt;br&gt;are&lt;br&gt;inconsistent" style="text;html=1;strokeColor=none;fillColor=none;align=center;verticalAlign=middle;whiteSpace=wrap;rounded=0;sketch=1;fillStyle=solid;fontColor=#080808;" vertex="1" parent="GTfu7ck5MZX2i5u8NP1Y-336">
          <mxGeometry x="16.840000000000032" y="67" width="60" height="30" as="geometry" />
        </mxCell>
        <mxCell id="GTfu7ck5MZX2i5u8NP1Y-388" value="" style="group" vertex="1" connectable="0" parent="183">
          <mxGeometry x="134.5" y="560.25" width="77" height="55" as="geometry" />
        </mxCell>
        <mxCell id="GTfu7ck5MZX2i5u8NP1Y-382" value="" style="shape=image;html=1;verticalAlign=top;verticalLabelPosition=bottom;labelBackgroundColor=#ffffff;imageAspect=0;aspect=fixed;image=https://cdn4.iconfinder.com/data/icons/transportation-and-vehicle/128/Transportation_And_Vehicle_3-10-128.png;sketch=1;fillStyle=solid;strokeColor=#2d7713;fontColor=#080808;fillColor=#86ea96;" vertex="1" parent="GTfu7ck5MZX2i5u8NP1Y-388">
          <mxGeometry width="42.848837209302324" height="42.848837209302324" as="geometry" />
        </mxCell>
        <mxCell id="GTfu7ck5MZX2i5u8NP1Y-387" value="" style="shape=image;html=1;verticalAlign=top;verticalLabelPosition=bottom;labelBackgroundColor=#ffffff;imageAspect=0;aspect=fixed;image=https://cdn4.iconfinder.com/data/icons/transportation-and-vehicle/128/Transportation_And_Vehicle_3-11-128.png;sketch=1;fillStyle=auto;strokeColor=#2d7713;fontColor=#080808;fillColor=#86ea96;" vertex="1" parent="GTfu7ck5MZX2i5u8NP1Y-388">
          <mxGeometry x="23.971698113207545" y="8.313953488372093" width="46.68604651162791" height="46.68604651162791" as="geometry" />
        </mxCell>
        <mxCell id="GTfu7ck5MZX2i5u8NP1Y-389" value="Results do not duplicate" style="text;html=1;strokeColor=none;fillColor=none;align=center;verticalAlign=middle;whiteSpace=wrap;rounded=0;sketch=1;fillStyle=solid;fontColor=#080808;" vertex="1" parent="183">
          <mxGeometry x="140.5" y="618.25" width="60" height="30" as="geometry" />
        </mxCell>
        <mxCell id="170" value="&lt;font color=&quot;#23497d&quot;&gt;Raw data validation&lt;/font&gt;" style="swimlane;whiteSpace=wrap;fillColor=none;swimlaneFillColor=#BAC8D3;fontColor=#2F5B7C;fontFamily=Tahoma;html=1;strokeColor=none;opacity=50;" parent="1" vertex="1">
          <mxGeometry x="24.5" y="88.5" width="191.5" height="653.5" as="geometry">
            <mxRectangle x="20" y="20" width="80" height="23" as="alternateBounds" />
          </mxGeometry>
        </mxCell>
        <mxCell id="171" value="Self consistent?&lt;br&gt;Use replicate testing&amp;nbsp;" style="whiteSpace=wrap;shadow=0;fontColor=#FFFFFF;fontFamily=Helvetica;fontStyle=0;html=1;fontSize=12;plain-purple;strokeColor=none;fillColor=#2f5b7c;gradientColor=none;spacing=6;verticalAlign=middle;" parent="170" vertex="1">
          <mxGeometry x="20" y="60" width="120" height="60" as="geometry" />
        </mxCell>
        <mxCell id="172" value="Physically meaningful?&lt;br&gt;Change input variables to confirm outputs trend as expected" style="whiteSpace=wrap;strokeColor=none;fillColor=#2f5b7c;shadow=0;fontColor=#FFFFFF;fontFamily=Helvetica;fontStyle=0;html=1;fontSize=12;spacing=6;verticalAlign=middle;" parent="170" vertex="1">
          <mxGeometry x="20" y="262" width="125" height="93.5" as="geometry" />
        </mxCell>
        <mxCell id="173" value="Repeatable?&lt;br&gt;Repeat tests across platforms (software, users, environments)" style="whiteSpace=wrap;strokeColor=none;fillColor=#2f5b7c;shadow=0;fontColor=#FFFFFF;fontFamily=Helvetica;fontStyle=0;html=1;fontSize=12;spacing=6;verticalAlign=middle;" parent="170" vertex="1">
          <mxGeometry x="20" y="485" width="120" height="85" as="geometry" />
        </mxCell>
        <mxCell id="174" value="" style="edgeStyle=segmentEdgeStyle;strokeColor=#2F5B7C;strokeWidth=3;html=1;endArrow=block;endFill=1;" parent="170" source="172" target="173" edge="1">
          <mxGeometry width="100" height="100" relative="1" as="geometry">
            <mxPoint x="170" y="397.5" as="sourcePoint" />
            <mxPoint x="270" y="472.5" as="targetPoint" />
          </mxGeometry>
        </mxCell>
        <mxCell id="175" value="" style="edgeStyle=segmentEdgeStyle;strokeColor=#2F5B7C;strokeWidth=3;html=1;endArrow=block;endFill=1;" parent="170" source="171" target="172" edge="1">
          <mxGeometry width="100" height="100" relative="1" as="geometry">
            <mxPoint x="160" y="110" as="sourcePoint" />
            <mxPoint x="260" y="185" as="targetPoint" />
          </mxGeometry>
        </mxCell>
        <mxCell id="GTfu7ck5MZX2i5u8NP1Y-341" value="" style="group" vertex="1" connectable="0" parent="170">
          <mxGeometry x="-48" y="362.5" width="127.5" height="77" as="geometry" />
        </mxCell>
        <mxCell id="GTfu7ck5MZX2i5u8NP1Y-330" value="" style="verticalLabelPosition=bottom;html=1;verticalAlign=top;strokeWidth=1;align=center;outlineConnect=0;dashed=0;outlineConnect=0;shape=mxgraph.aws3d.file;aspect=fixed;strokeColor=#292929;sketch=1;fillStyle=solid;fontColor=#080808;fillColor=#fafafa;" vertex="1" parent="GTfu7ck5MZX2i5u8NP1Y-341">
          <mxGeometry y="8.421875" width="13.801614349775786" height="31.641255605381165" as="geometry" />
        </mxCell>
        <mxCell id="GTfu7ck5MZX2i5u8NP1Y-331" value="" style="verticalLabelPosition=bottom;html=1;verticalAlign=top;strokeWidth=1;align=center;outlineConnect=0;dashed=0;outlineConnect=0;shape=mxgraph.aws3d.file;aspect=fixed;strokeColor=#292929;sketch=1;fillStyle=solid;fontColor=#080808;fillColor=#fafafa;" vertex="1" parent="GTfu7ck5MZX2i5u8NP1Y-341">
          <mxGeometry x="6.849551569506721" y="24.0625" width="10.627443946188341" height="24.358744394618835" as="geometry" />
        </mxCell>
        <mxCell id="GTfu7ck5MZX2i5u8NP1Y-332" value="" style="verticalLabelPosition=bottom;html=1;verticalAlign=top;strokeWidth=1;align=center;outlineConnect=0;dashed=0;outlineConnect=0;shape=mxgraph.aws3d.file;aspect=fixed;strokeColor=#292929;sketch=1;fillStyle=solid;fontColor=#080808;fillColor=#fafafa;" vertex="1" parent="GTfu7ck5MZX2i5u8NP1Y-341">
          <mxGeometry x="15.711659192825124" y="42.109375" width="6.900807174887893" height="15.820627802690582" as="geometry" />
        </mxCell>
        <mxCell id="GTfu7ck5MZX2i5u8NP1Y-333" value="" style="endArrow=classic;dashed=1;html=1;dashPattern=1 3;strokeWidth=2;rounded=0;fontColor=#080808;endFill=1;" edge="1" parent="GTfu7ck5MZX2i5u8NP1Y-341">
          <mxGeometry width="50" height="50" relative="1" as="geometry">
            <mxPoint x="12.85291479820629" y="32.333984375" as="sourcePoint" />
            <mxPoint x="58.02107623318388" y="32.333984375" as="targetPoint" />
          </mxGeometry>
        </mxCell>
        <mxCell id="GTfu7ck5MZX2i5u8NP1Y-340" value="" style="shape=image;html=1;verticalAlign=top;verticalLabelPosition=bottom;labelBackgroundColor=#ffffff;imageAspect=0;aspect=fixed;image=https://cdn4.iconfinder.com/data/icons/transportation-and-vehicle/128/Transportation_And_Vehicle_3-10-128.png;sketch=1;fillStyle=auto;strokeColor=#2d7713;fontColor=#080808;fillColor=#86ea96;" vertex="1" parent="GTfu7ck5MZX2i5u8NP1Y-341">
          <mxGeometry x="54.31614349775785" width="64.28699551569507" height="64.28699551569507" as="geometry" />
        </mxCell>
        <mxCell id="GTfu7ck5MZX2i5u8NP1Y-343" value="" style="endArrow=classic;dashed=1;html=1;dashPattern=1 3;strokeWidth=2;rounded=0;fontColor=#080808;endFill=1;entryX=0.433;entryY=0.422;entryDx=0;entryDy=0;entryPerimeter=0;" edge="1" parent="170" source="GTfu7ck5MZX2i5u8NP1Y-329">
          <mxGeometry width="50" height="50" relative="1" as="geometry">
            <mxPoint x="-11.209596412556039" y="404.833984375" as="sourcePoint" />
            <mxPoint x="41.51099999999997" y="157.7739999999999" as="targetPoint" />
          </mxGeometry>
        </mxCell>
        <mxCell id="GTfu7ck5MZX2i5u8NP1Y-376" value="" style="group" vertex="1" connectable="0" parent="170">
          <mxGeometry x="-26" y="575.5" width="99" height="78" as="geometry" />
        </mxCell>
        <mxCell id="GTfu7ck5MZX2i5u8NP1Y-377" value="" style="shape=image;html=1;verticalAlign=top;verticalLabelPosition=bottom;labelBackgroundColor=#ffffff;imageAspect=0;aspect=fixed;image=https://cdn4.iconfinder.com/data/icons/transportation-and-vehicle/128/Transportation_And_Vehicle_3-10-128.png;sketch=1;fillStyle=solid;strokeColor=#2d7713;fontColor=#080808;fillColor=#86ea96;" vertex="1" parent="GTfu7ck5MZX2i5u8NP1Y-376">
          <mxGeometry x="50.58394160583943" y="11" width="48.41605839416058" height="48.41605839416058" as="geometry" />
        </mxCell>
        <mxCell id="GTfu7ck5MZX2i5u8NP1Y-378" value="" style="verticalLabelPosition=bottom;html=1;verticalAlign=top;strokeWidth=1;align=center;outlineConnect=0;dashed=0;outlineConnect=0;shape=mxgraph.aws3d.file;aspect=fixed;strokeColor=#292929;sketch=1;fillStyle=solid;fontColor=#080808;fillColor=#fafafa;" vertex="1" parent="GTfu7ck5MZX2i5u8NP1Y-376">
          <mxGeometry width="15.290802919708026" height="35.04744525547445" as="geometry" />
        </mxCell>
        <mxCell id="GTfu7ck5MZX2i5u8NP1Y-379" value="" style="verticalLabelPosition=bottom;html=1;verticalAlign=top;strokeWidth=1;align=center;outlineConnect=0;dashed=0;outlineConnect=0;shape=mxgraph.aws3d.file;aspect=fixed;strokeColor=#9673a6;sketch=1;fillStyle=solid;fillColor=#e1d5e7;" vertex="1" parent="GTfu7ck5MZX2i5u8NP1Y-376">
          <mxGeometry x="7.94890510948905" y="19" width="15.290802919708026" height="35.04744525547445" as="geometry" />
        </mxCell>
        <mxCell id="GTfu7ck5MZX2i5u8NP1Y-380" value="" style="endArrow=classic;dashed=1;html=1;dashPattern=1 3;strokeWidth=2;rounded=0;fontColor=#080808;endFill=1;" edge="1" parent="GTfu7ck5MZX2i5u8NP1Y-376">
          <mxGeometry width="50" height="50" relative="1" as="geometry">
            <mxPoint x="18.78832116788323" y="35.75" as="sourcePoint" />
            <mxPoint x="57.8102189781022" y="35.75" as="targetPoint" />
          </mxGeometry>
        </mxCell>
        <mxCell id="GTfu7ck5MZX2i5u8NP1Y-392" value="" style="edgeStyle=segmentEdgeStyle;strokeColor=#b5121a;strokeWidth=3;html=1;endArrow=block;endFill=1;exitX=0;exitY=0.5;exitDx=0;exitDy=0;entryX=0.75;entryY=1;entryDx=0;entryDy=0;" edge="1" parent="170">
          <mxGeometry x="-34.75" y="126" width="100" height="100" as="geometry">
            <mxPoint x="317.40999999999985" y="624" as="sourcePoint" />
            <mxPoint x="103.5" y="570" as="targetPoint" />
          </mxGeometry>
        </mxCell>
        <mxCell id="187" value="&lt;font color=&quot;#23497d&quot;&gt;Statistical validation&lt;/font&gt;" style="swimlane;whiteSpace=wrap;fillColor=none;swimlaneFillColor=#BAC8D3;fontColor=#2F5B7C;fontFamily=Tahoma;html=1;strokeColor=none;opacity=50;" parent="1" vertex="1">
          <mxGeometry x="474.5" y="88.5" width="160" height="650" as="geometry">
            <mxRectangle x="20" y="20" width="80" height="23" as="alternateBounds" />
          </mxGeometry>
        </mxCell>
        <mxCell id="188" value="Single data distribution&lt;br&gt;statistics are well formed?" style="shape=document;whiteSpace=wrap;verticalAlign=middle;strokeColor=none;fillColor=#12aab5;shadow=0;fontColor=#FFFFFF;fontFamily=Helvetica;fontStyle=0;html=1;fontSize=12;spacing=6;spacingBottom=22;" parent="187" vertex="1">
          <mxGeometry x="20" y="50" width="120" height="80" as="geometry" />
        </mxCell>
        <mxCell id="189" value="Does variation in parameters give variations in distributions?" style="shape=document;whiteSpace=wrap;verticalAlign=middle;strokeColor=none;fillColor=#12aab5;shadow=0;fontColor=#FFFFFF;fontFamily=Helvetica;fontStyle=0;html=1;fontSize=12;spacing=6;spacingBottom=22;" parent="187" vertex="1">
          <mxGeometry x="23.5" y="258.5" width="131" height="89" as="geometry" />
        </mxCell>
        <mxCell id="190" value="Is there consistency between distributions from different data sources?" style="shape=document;whiteSpace=wrap;strokeColor=none;fillColor=#12aab5;shadow=0;fontColor=#FFFFFF;fontFamily=Helvetica;fontStyle=0;html=1;fontSize=12;verticalAlign=middle;spacing=6;spacingBottom=22;" parent="187" vertex="1">
          <mxGeometry x="23.5" y="491.5" width="120" height="111" as="geometry" />
        </mxCell>
        <mxCell id="196" value="Results" style="swimlane;whiteSpace=wrap;fillColor=none;swimlaneFillColor=#BAC8D3;fontColor=#2F5B7C;fontFamily=Tahoma;html=1;strokeColor=none;opacity=50;" parent="1" vertex="1">
          <mxGeometry x="1479" y="99" width="160" height="650" as="geometry">
            <mxRectangle x="20" y="20" width="80" height="23" as="alternateBounds" />
          </mxGeometry>
        </mxCell>
        <mxCell id="197" value="Project evaluation of key objectives" style="shape=document;whiteSpace=wrap;verticalAlign=middle;strokeColor=none;fillColor=#12aab5;shadow=0;fontColor=#FFFFFF;fontFamily=Helvetica;fontStyle=0;html=1;fontSize=12;spacing=6;spacingBottom=22;" parent="196" vertex="1">
          <mxGeometry x="20" y="130" width="120" height="80" as="geometry" />
        </mxCell>
        <mxCell id="GTfu7ck5MZX2i5u8NP1Y-711" value="" style="group" vertex="1" connectable="0" parent="196">
          <mxGeometry x="45" y="226" width="106" height="48" as="geometry" />
        </mxCell>
        <mxCell id="GTfu7ck5MZX2i5u8NP1Y-712" value="" style="shape=singleArrow;direction=north;whiteSpace=wrap;html=1;sketch=1;fillStyle=auto;strokeColor=#2d7713;fontColor=#080808;fillColor=#86ea96;" vertex="1" parent="GTfu7ck5MZX2i5u8NP1Y-711">
          <mxGeometry width="34.37837837837838" height="48" as="geometry" />
        </mxCell>
        <mxCell id="GTfu7ck5MZX2i5u8NP1Y-713" value="" style="shape=singleArrow;direction=north;whiteSpace=wrap;html=1;sketch=1;fillStyle=auto;strokeColor=#b85450;fillColor=#f8cecc;rotation=-180;" vertex="1" parent="GTfu7ck5MZX2i5u8NP1Y-711">
          <mxGeometry x="36.0972972972973" width="34.37837837837838" height="48" as="geometry" />
        </mxCell>
        <mxCell id="204" value="" style="edgeStyle=segmentEdgeStyle;strokeColor=#2F5B7C;strokeWidth=3;html=1;endArrow=block;endFill=1;exitX=1;exitY=0.5;exitDx=0;exitDy=0;entryX=-0.016;entryY=0.65;entryDx=0;entryDy=0;entryPerimeter=0;" parent="1" edge="1">
          <mxGeometry y="-4" width="100" height="100" as="geometry">
            <mxPoint x="164.5" y="174.5" as="sourcePoint" />
            <mxPoint x="229.35145945945942" y="178.6594594594594" as="targetPoint" />
            <Array as="points">
              <mxPoint x="165" y="179" />
            </Array>
          </mxGeometry>
        </mxCell>
        <mxCell id="205" value="" style="edgeStyle=segmentEdgeStyle;strokeColor=#b5121a;strokeWidth=3;html=1;endArrow=block;endFill=1;exitX=0;exitY=0.5;exitDx=0;exitDy=0;entryX=0.75;entryY=1;entryDx=0;entryDy=0;" parent="1" source="GTfu7ck5MZX2i5u8NP1Y-270" target="172" edge="1">
          <mxGeometry width="100" height="100" as="geometry">
            <mxPoint x="364.5" y="433.5" as="sourcePoint" />
            <mxPoint x="614.5" y="718.5" as="targetPoint" />
          </mxGeometry>
        </mxCell>
        <mxCell id="GTfu7ck5MZX2i5u8NP1Y-254" value="" style="edgeStyle=segmentEdgeStyle;strokeColor=#2F5B7C;strokeWidth=3;html=1;endArrow=block;endFill=1;exitX=1;exitY=0.5;exitDx=0;exitDy=0;" edge="1" parent="1" source="171">
          <mxGeometry x="464.5" y="293.5" width="100" height="100" as="geometry">
            <mxPoint x="199" y="180" as="sourcePoint" />
            <mxPoint x="341" y="280" as="targetPoint" />
            <Array as="points">
              <mxPoint x="199" y="179" />
              <mxPoint x="199" y="280" />
            </Array>
          </mxGeometry>
        </mxCell>
        <mxCell id="GTfu7ck5MZX2i5u8NP1Y-344" value="" style="edgeStyle=segmentEdgeStyle;strokeColor=#2F5B7C;strokeWidth=3;html=1;endArrow=block;endFill=1;" edge="1" parent="1" target="GTfu7ck5MZX2i5u8NP1Y-288">
          <mxGeometry x="203.5" y="188.5" width="100" height="100" as="geometry">
            <mxPoint x="173" y="404" as="sourcePoint" />
            <mxPoint x="229" y="380" as="targetPoint" />
            <Array as="points">
              <mxPoint x="209" y="404" />
              <mxPoint x="209" y="375" />
            </Array>
          </mxGeometry>
        </mxCell>
        <mxCell id="GTfu7ck5MZX2i5u8NP1Y-345" value="" style="edgeStyle=segmentEdgeStyle;strokeColor=#2F5B7C;strokeWidth=3;html=1;endArrow=block;endFill=1;entryX=0;entryY=0.5;entryDx=0;entryDy=0;" edge="1" parent="1" target="GTfu7ck5MZX2i5u8NP1Y-337">
          <mxGeometry x="213.5" y="198.5" width="100" height="100" as="geometry">
            <mxPoint x="171" y="405" as="sourcePoint" />
            <mxPoint x="238.75" y="385" as="targetPoint" />
            <Array as="points">
              <mxPoint x="219" y="405" />
              <mxPoint x="219" y="461" />
              <mxPoint x="329" y="461" />
              <mxPoint x="329" y="459" />
            </Array>
          </mxGeometry>
        </mxCell>
        <mxCell id="GTfu7ck5MZX2i5u8NP1Y-346" value="" style="shape=image;html=1;verticalAlign=top;verticalLabelPosition=bottom;labelBackgroundColor=#ffffff;imageAspect=0;aspect=fixed;image=https://cdn4.iconfinder.com/data/icons/transportation-and-vehicle/128/Transportation_And_Vehicle_3-10-128.png;sketch=1;fillStyle=solid;strokeColor=#2d7713;fontColor=#080808;fillColor=#86ea96;" vertex="1" parent="1">
          <mxGeometry x="37" y="218" width="67" height="67" as="geometry" />
        </mxCell>
        <mxCell id="GTfu7ck5MZX2i5u8NP1Y-347" value="" style="group" vertex="1" connectable="0" parent="1">
          <mxGeometry x="-16.00000000000003" y="222" width="42.31999999999999" height="48.5" as="geometry" />
        </mxCell>
        <mxCell id="GTfu7ck5MZX2i5u8NP1Y-348" value="" style="verticalLabelPosition=bottom;html=1;verticalAlign=top;strokeWidth=1;align=center;outlineConnect=0;dashed=0;outlineConnect=0;shape=mxgraph.aws3d.file;aspect=fixed;strokeColor=#292929;sketch=1;fillStyle=solid;fontColor=#080808;fillColor=#fafafa;" vertex="1" parent="GTfu7ck5MZX2i5u8NP1Y-347">
          <mxGeometry width="21.16" height="48.5" as="geometry" />
        </mxCell>
        <mxCell id="GTfu7ck5MZX2i5u8NP1Y-349" value="" style="verticalLabelPosition=bottom;html=1;verticalAlign=top;strokeWidth=1;align=center;outlineConnect=0;dashed=0;outlineConnect=0;shape=mxgraph.aws3d.file;aspect=fixed;strokeColor=#292929;sketch=1;fillStyle=solid;fontColor=#080808;fillColor=#fafafa;" vertex="1" parent="GTfu7ck5MZX2i5u8NP1Y-347">
          <mxGeometry x="10" width="21.16" height="48.5" as="geometry" />
        </mxCell>
        <mxCell id="GTfu7ck5MZX2i5u8NP1Y-350" value="" style="verticalLabelPosition=bottom;html=1;verticalAlign=top;strokeWidth=1;align=center;outlineConnect=0;dashed=0;outlineConnect=0;shape=mxgraph.aws3d.file;aspect=fixed;strokeColor=#292929;sketch=1;fillStyle=solid;fontColor=#080808;fillColor=#fafafa;" vertex="1" parent="GTfu7ck5MZX2i5u8NP1Y-347">
          <mxGeometry x="21.159999999999997" width="21.16" height="48.5" as="geometry" />
        </mxCell>
        <mxCell id="GTfu7ck5MZX2i5u8NP1Y-367" value="" style="endArrow=classic;dashed=1;html=1;dashPattern=1 3;strokeWidth=2;rounded=0;fontColor=#080808;endFill=1;" edge="1" parent="GTfu7ck5MZX2i5u8NP1Y-347">
          <mxGeometry width="50" height="50" relative="1" as="geometry">
            <mxPoint x="12.000000000000028" y="28" as="sourcePoint" />
            <mxPoint x="66.00000000000003" y="28" as="targetPoint" />
          </mxGeometry>
        </mxCell>
        <mxCell id="GTfu7ck5MZX2i5u8NP1Y-390" value="" style="edgeStyle=segmentEdgeStyle;strokeColor=#b5121a;strokeWidth=3;html=1;endArrow=block;endFill=1;exitX=0;exitY=0.5;exitDx=0;exitDy=0;entryX=0.851;entryY=1.003;entryDx=0;entryDy=0;entryPerimeter=0;" edge="1" parent="1" source="GTfu7ck5MZX2i5u8NP1Y-240" target="171">
          <mxGeometry width="100" height="100" as="geometry">
            <mxPoint x="392.15999999999985" y="523" as="sourcePoint" />
            <mxPoint x="148.25" y="454" as="targetPoint" />
          </mxGeometry>
        </mxCell>
        <mxCell id="GTfu7ck5MZX2i5u8NP1Y-581" value="&lt;font color=&quot;#23497d&quot;&gt;Safety Metric Consistency&lt;/font&gt;" style="swimlane;whiteSpace=wrap;fillColor=none;swimlaneFillColor=#BAC8D3;fontColor=#2F5B7C;fontFamily=Tahoma;html=1;strokeColor=none;opacity=50;startSize=23;" vertex="1" parent="1">
          <mxGeometry x="981" y="107.5" width="191.5" height="653.5" as="geometry">
            <mxRectangle x="20" y="20" width="80" height="23" as="alternateBounds" />
          </mxGeometry>
        </mxCell>
        <mxCell id="GTfu7ck5MZX2i5u8NP1Y-582" value="Are safety metrics of similar measurements similar to each other?" style="whiteSpace=wrap;shadow=0;fontColor=#FFFFFF;fontFamily=Helvetica;fontStyle=0;html=1;fontSize=12;plain-purple;strokeColor=none;fillColor=#2f5b7c;gradientColor=none;spacing=6;verticalAlign=middle;" vertex="1" parent="GTfu7ck5MZX2i5u8NP1Y-581">
          <mxGeometry x="20" y="60" width="120" height="85" as="geometry" />
        </mxCell>
        <mxCell id="GTfu7ck5MZX2i5u8NP1Y-583" value="As variables change, do similar safety metrics change in the same trends?" style="whiteSpace=wrap;strokeColor=none;fillColor=#2f5b7c;shadow=0;fontColor=#FFFFFF;fontFamily=Helvetica;fontStyle=0;html=1;fontSize=12;spacing=6;verticalAlign=middle;" vertex="1" parent="GTfu7ck5MZX2i5u8NP1Y-581">
          <mxGeometry x="20" y="262" width="125" height="93.5" as="geometry" />
        </mxCell>
        <mxCell id="GTfu7ck5MZX2i5u8NP1Y-584" value="Do different safety metrics agree?" style="whiteSpace=wrap;strokeColor=none;fillColor=#2f5b7c;shadow=0;fontColor=#FFFFFF;fontFamily=Helvetica;fontStyle=0;html=1;fontSize=12;spacing=6;verticalAlign=middle;" vertex="1" parent="GTfu7ck5MZX2i5u8NP1Y-581">
          <mxGeometry x="20" y="485" width="120" height="85" as="geometry" />
        </mxCell>
        <mxCell id="GTfu7ck5MZX2i5u8NP1Y-645" value="&lt;font color=&quot;#23497d&quot;&gt;Fail&lt;/font&gt;" style="swimlane;whiteSpace=wrap;fillColor=#f8cecc;swimlaneFillColor=#FFCCCC;fontFamily=Tahoma;html=1;strokeColor=#b85450;opacity=50;" vertex="1" parent="1">
          <mxGeometry x="1320" y="120.88" width="140.01" height="636.75" as="geometry">
            <mxRectangle x="20" y="20" width="80" height="23" as="alternateBounds" />
          </mxGeometry>
        </mxCell>
        <mxCell id="GTfu7ck5MZX2i5u8NP1Y-646" value="&lt;span style=&quot;color: rgb(35, 73, 125);&quot;&gt;Metric consistency&lt;/span&gt;" style="swimlane;whiteSpace=wrap;fillColor=none;swimlaneFillColor=#BAC8D3;fontColor=#2F5B7C;fontFamily=Tahoma;html=1;strokeColor=none;opacity=25;startSize=23;" vertex="1" parent="GTfu7ck5MZX2i5u8NP1Y-645">
          <mxGeometry x="-143" y="-25.75" width="283.01" height="691.5" as="geometry">
            <mxRectangle x="20" y="20" width="80" height="23" as="alternateBounds" />
          </mxGeometry>
        </mxCell>
        <mxCell id="GTfu7ck5MZX2i5u8NP1Y-647" value="Different safety metrics do not agree" style="text;html=1;strokeColor=none;fillColor=none;align=center;verticalAlign=middle;whiteSpace=wrap;rounded=0;sketch=1;fillStyle=solid;fontColor=#080808;" vertex="1" parent="GTfu7ck5MZX2i5u8NP1Y-646">
          <mxGeometry x="192.5" y="615.5" width="60" height="30" as="geometry" />
        </mxCell>
        <mxCell id="GTfu7ck5MZX2i5u8NP1Y-648" value="&lt;font color=&quot;#23497d&quot;&gt;Pass&lt;/font&gt;" style="swimlane;whiteSpace=wrap;fillColor=#d5e8d4;swimlaneFillColor=#CCFFCC;fontFamily=Tahoma;html=1;strokeColor=#82b366;opacity=50;" vertex="1" parent="GTfu7ck5MZX2i5u8NP1Y-646">
          <mxGeometry x="5.5" y="25" width="127.5" height="637" as="geometry">
            <mxRectangle x="20" y="20" width="80" height="23" as="alternateBounds" />
          </mxGeometry>
        </mxCell>
        <mxCell id="GTfu7ck5MZX2i5u8NP1Y-650" value="Similar metrics are consistent" style="text;html=1;strokeColor=none;fillColor=none;align=center;verticalAlign=middle;whiteSpace=wrap;rounded=0;sketch=1;fillStyle=solid;fontColor=#080808;" vertex="1" parent="GTfu7ck5MZX2i5u8NP1Y-648">
          <mxGeometry x="24" y="102.25" width="60" height="30" as="geometry" />
        </mxCell>
        <mxCell id="GTfu7ck5MZX2i5u8NP1Y-651" value="Different safety metrics&lt;br&gt;agree" style="text;html=1;strokeColor=none;fillColor=none;align=center;verticalAlign=middle;whiteSpace=wrap;rounded=0;sketch=1;fillStyle=solid;fontColor=#080808;" vertex="1" parent="GTfu7ck5MZX2i5u8NP1Y-648">
          <mxGeometry x="8.5" y="524.25" width="60" height="30" as="geometry" />
        </mxCell>
        <mxCell id="GTfu7ck5MZX2i5u8NP1Y-652" value="Metrics change in similar manner" style="text;html=1;strokeColor=none;fillColor=none;align=center;verticalAlign=middle;whiteSpace=wrap;rounded=0;sketch=1;fillStyle=solid;fontColor=#080808;" vertex="1" parent="GTfu7ck5MZX2i5u8NP1Y-648">
          <mxGeometry x="19" y="292.25" width="60" height="30" as="geometry" />
        </mxCell>
        <mxCell id="GTfu7ck5MZX2i5u8NP1Y-653" value="Trends &lt;br&gt;are&lt;br&gt;inconsistent" style="text;html=1;strokeColor=none;fillColor=none;align=center;verticalAlign=middle;whiteSpace=wrap;rounded=0;sketch=1;fillStyle=solid;fontColor=#080808;" vertex="1" parent="GTfu7ck5MZX2i5u8NP1Y-648">
          <mxGeometry x="163" y="392" width="59.54" height="31" as="geometry" />
        </mxCell>
        <mxCell id="GTfu7ck5MZX2i5u8NP1Y-739" value="" style="group" vertex="1" connectable="0" parent="GTfu7ck5MZX2i5u8NP1Y-648">
          <mxGeometry x="-2.501848489000622" y="455.8650203375706" width="120.34369697800173" height="58.98995932485877" as="geometry" />
        </mxCell>
        <mxCell id="GTfu7ck5MZX2i5u8NP1Y-740" value="" style="shape=singleArrow;direction=north;whiteSpace=wrap;html=1;sketch=1;fillStyle=auto;strokeColor=#2d7713;fontColor=#080808;fillColor=#86ea96;container=0;rotation=20;" vertex="1" parent="GTfu7ck5MZX2i5u8NP1Y-739">
          <mxGeometry x="7.1718484890008085" y="5.494979662429387" width="34.37837837837838" height="48" as="geometry" />
        </mxCell>
        <mxCell id="GTfu7ck5MZX2i5u8NP1Y-741" value="" style="shape=singleArrow;direction=north;whiteSpace=wrap;html=1;sketch=1;fillStyle=auto;strokeColor=#6F0000;fillColor=#a20025;rotation=-161;container=0;fontColor=#ffffff;" vertex="1" parent="GTfu7ck5MZX2i5u8NP1Y-739">
          <mxGeometry x="43.269145786298054" y="5.494979662429387" width="34.37837837837838" height="48" as="geometry" />
        </mxCell>
        <mxCell id="GTfu7ck5MZX2i5u8NP1Y-742" value="" style="shape=singleArrow;direction=north;whiteSpace=wrap;html=1;fillStyle=auto;strokeColor=#006EAF;fontColor=#ffffff;fillColor=#1ba1e2;container=0;rotation=-75;" vertex="1" parent="GTfu7ck5MZX2i5u8NP1Y-739">
          <mxGeometry x="78.79347011062248" y="5.494979662429387" width="34.37837837837838" height="48" as="geometry" />
        </mxCell>
        <mxCell id="GTfu7ck5MZX2i5u8NP1Y-664" value="Similar metrics are inconsistent" style="text;html=1;strokeColor=none;fillColor=none;align=center;verticalAlign=middle;whiteSpace=wrap;rounded=0;sketch=1;fillStyle=solid;fontColor=#080808;" vertex="1" parent="GTfu7ck5MZX2i5u8NP1Y-646">
          <mxGeometry x="178.88" y="208.5" width="60" height="30" as="geometry" />
        </mxCell>
        <mxCell id="GTfu7ck5MZX2i5u8NP1Y-682" value="" style="group" vertex="1" connectable="0" parent="GTfu7ck5MZX2i5u8NP1Y-646">
          <mxGeometry x="158.8900000000001" y="145.87" width="106" height="48" as="geometry" />
        </mxCell>
        <mxCell id="GTfu7ck5MZX2i5u8NP1Y-683" value="" style="shape=singleArrow;direction=north;whiteSpace=wrap;html=1;sketch=1;fillStyle=auto;strokeColor=#2d7713;fontColor=#080808;fillColor=#86ea96;" vertex="1" parent="GTfu7ck5MZX2i5u8NP1Y-682">
          <mxGeometry width="34.37837837837838" height="48" as="geometry" />
        </mxCell>
        <mxCell id="GTfu7ck5MZX2i5u8NP1Y-684" value="" style="shape=singleArrow;direction=north;whiteSpace=wrap;html=1;sketch=1;fillStyle=auto;strokeColor=#b85450;fillColor=#f8cecc;rotation=-180;" vertex="1" parent="GTfu7ck5MZX2i5u8NP1Y-682">
          <mxGeometry x="36.0972972972973" width="34.37837837837838" height="48" as="geometry" />
        </mxCell>
        <mxCell id="GTfu7ck5MZX2i5u8NP1Y-685" value="" style="shape=singleArrow;direction=north;whiteSpace=wrap;html=1;sketch=1;fillStyle=auto;strokeColor=#2d7713;fontColor=#080808;fillColor=#86ea96;" vertex="1" parent="GTfu7ck5MZX2i5u8NP1Y-682">
          <mxGeometry x="71.62162162162163" width="34.37837837837838" height="48" as="geometry" />
        </mxCell>
        <mxCell id="GTfu7ck5MZX2i5u8NP1Y-674" value="" style="group" vertex="1" connectable="0" parent="1">
          <mxGeometry x="1198" y="157" width="98" height="48" as="geometry" />
        </mxCell>
        <mxCell id="GTfu7ck5MZX2i5u8NP1Y-675" value="" style="shape=singleArrow;direction=north;whiteSpace=wrap;html=1;sketch=1;fillStyle=auto;strokeColor=#2d7713;fontColor=#080808;fillColor=#86ea96;" vertex="1" parent="GTfu7ck5MZX2i5u8NP1Y-674">
          <mxGeometry width="31.783783783783786" height="48" as="geometry" />
        </mxCell>
        <mxCell id="GTfu7ck5MZX2i5u8NP1Y-676" value="" style="shape=singleArrow;direction=north;whiteSpace=wrap;html=1;sketch=1;fillStyle=auto;strokeColor=#2d7713;fontColor=#080808;fillColor=#86ea96;" vertex="1" parent="GTfu7ck5MZX2i5u8NP1Y-674">
          <mxGeometry x="33.372972972972974" width="31.783783783783786" height="48" as="geometry" />
        </mxCell>
        <mxCell id="GTfu7ck5MZX2i5u8NP1Y-677" value="" style="shape=singleArrow;direction=north;whiteSpace=wrap;html=1;sketch=1;fillStyle=auto;strokeColor=#2d7713;fontColor=#080808;fillColor=#86ea96;" vertex="1" parent="GTfu7ck5MZX2i5u8NP1Y-674">
          <mxGeometry x="66.21621621621622" width="31.783783783783786" height="48" as="geometry" />
        </mxCell>
        <mxCell id="GTfu7ck5MZX2i5u8NP1Y-705" value="" style="group" vertex="1" connectable="0" parent="1">
          <mxGeometry x="1188.9998460024592" y="338.99944436322755" width="109.34030799508173" height="57.46111127354493" as="geometry" />
        </mxCell>
        <mxCell id="GTfu7ck5MZX2i5u8NP1Y-701" value="" style="shape=singleArrow;direction=north;whiteSpace=wrap;html=1;sketch=1;fillStyle=auto;strokeColor=#2d7713;fontColor=#080808;fillColor=#86ea96;container=0;rotation=15;" vertex="1" parent="GTfu7ck5MZX2i5u8NP1Y-705">
          <mxGeometry x="5.670153997540865" y="4.730555636772465" width="31.783783783783786" height="48" as="geometry" />
        </mxCell>
        <mxCell id="GTfu7ck5MZX2i5u8NP1Y-702" value="" style="shape=singleArrow;direction=north;whiteSpace=wrap;html=1;sketch=1;fillStyle=auto;strokeColor=#2d7713;fontColor=#080808;fillColor=#86ea96;container=0;rotation=30;" vertex="1" parent="GTfu7ck5MZX2i5u8NP1Y-705">
          <mxGeometry x="39.04312697051387" y="4.730555636772465" width="31.783783783783786" height="48" as="geometry" />
        </mxCell>
        <mxCell id="GTfu7ck5MZX2i5u8NP1Y-703" value="" style="shape=singleArrow;direction=north;whiteSpace=wrap;html=1;sketch=1;fillStyle=auto;strokeColor=#2d7713;fontColor=#080808;fillColor=#86ea96;container=0;rotation=15;" vertex="1" parent="GTfu7ck5MZX2i5u8NP1Y-705">
          <mxGeometry x="71.88637021375712" y="4.730555636772465" width="31.783783783783786" height="48" as="geometry" />
        </mxCell>
        <mxCell id="GTfu7ck5MZX2i5u8NP1Y-707" value="" style="group" vertex="1" connectable="0" parent="1">
          <mxGeometry x="1325.9981515109994" y="443.9950203375706" width="120.34369697800173" height="58.98995932485877" as="geometry" />
        </mxCell>
        <mxCell id="GTfu7ck5MZX2i5u8NP1Y-708" value="" style="shape=singleArrow;direction=north;whiteSpace=wrap;html=1;sketch=1;fillStyle=auto;strokeColor=#2d7713;fontColor=#080808;fillColor=#86ea96;container=0;rotation=20;" vertex="1" parent="GTfu7ck5MZX2i5u8NP1Y-707">
          <mxGeometry x="7.1718484890008085" y="5.494979662429387" width="34.37837837837838" height="48" as="geometry" />
        </mxCell>
        <mxCell id="GTfu7ck5MZX2i5u8NP1Y-709" value="" style="shape=singleArrow;direction=north;whiteSpace=wrap;html=1;sketch=1;fillStyle=auto;strokeColor=#b85450;fillColor=#f8cecc;rotation=-38;container=0;" vertex="1" parent="GTfu7ck5MZX2i5u8NP1Y-707">
          <mxGeometry x="43.269145786298054" y="5.494979662429387" width="34.37837837837838" height="48" as="geometry" />
        </mxCell>
        <mxCell id="GTfu7ck5MZX2i5u8NP1Y-710" value="" style="shape=singleArrow;direction=north;whiteSpace=wrap;html=1;sketch=1;fillStyle=auto;strokeColor=#2d7713;fontColor=#080808;fillColor=#86ea96;container=0;rotation=20;" vertex="1" parent="GTfu7ck5MZX2i5u8NP1Y-707">
          <mxGeometry x="78.79347011062248" y="5.494979662429387" width="34.37837837837838" height="48" as="geometry" />
        </mxCell>
        <mxCell id="GTfu7ck5MZX2i5u8NP1Y-726" value="" style="group" vertex="1" connectable="0" parent="1">
          <mxGeometry x="1322.9981515109994" y="629.9950203375706" width="120.34369697800173" height="58.98995932485877" as="geometry" />
        </mxCell>
        <mxCell id="GTfu7ck5MZX2i5u8NP1Y-727" value="" style="shape=singleArrow;direction=north;whiteSpace=wrap;html=1;sketch=1;fillStyle=auto;strokeColor=#2d7713;fontColor=#080808;fillColor=#86ea96;container=0;rotation=20;" vertex="1" parent="GTfu7ck5MZX2i5u8NP1Y-726">
          <mxGeometry x="7.1718484890008085" y="5.494979662429387" width="34.37837837837838" height="48" as="geometry" />
        </mxCell>
        <mxCell id="GTfu7ck5MZX2i5u8NP1Y-728" value="" style="shape=singleArrow;direction=north;whiteSpace=wrap;html=1;sketch=1;fillStyle=auto;strokeColor=#6F0000;fillColor=#a20025;rotation=-161;container=0;fontColor=#ffffff;" vertex="1" parent="GTfu7ck5MZX2i5u8NP1Y-726">
          <mxGeometry x="43.269145786298054" y="5.494979662429387" width="34.37837837837838" height="48" as="geometry" />
        </mxCell>
        <mxCell id="GTfu7ck5MZX2i5u8NP1Y-729" value="" style="shape=singleArrow;direction=north;whiteSpace=wrap;html=1;fillStyle=auto;strokeColor=#006EAF;fontColor=#ffffff;fillColor=#1ba1e2;container=0;rotation=-75;" vertex="1" parent="GTfu7ck5MZX2i5u8NP1Y-726">
          <mxGeometry x="78.79347011062248" y="5.494979662429387" width="34.37837837837838" height="48" as="geometry" />
        </mxCell>
      </root>
    </mxGraphModel>
  </diagram>
</mxfile>
